<svg class="main-svg" xmlns="http://www.w3.org/2000/svg" xmlns:xlink="http://www.w3.org/1999/xlink" width="900" height="560" style="" viewBox="0 0 900 560"><rect x="0" y="0" width="900" height="560" style="fill: rgb(240, 235, 227); fill-opacity: 1;"/><defs id="defs-e418cb"><g class="clips"><clipPath id="clipe418cbxyplot" class="plotclip"><rect width="790" height="365"/></clipPath><clipPath class="axesclip" id="clipe418cbx"><rect x="60" y="0" width="790" height="560"/></clipPath><clipPath class="axesclip" id="clipe418cby"><rect x="0" y="110" width="900" height="365"/></clipPath><clipPath class="axesclip" id="clipe418cbxy"><rect x="60" y="110" width="790" height="365"/></clipPath></g><g class="gradients"/><g class="patterns"/></defs><g class="bglayer"/><g class="layer-below"><g class="imagelayer"/><g class="shapelayer"/></g><g class="cartesianlayer"><g class="subplot xy"><g class="layer-subplot"><g class="shapelayer"/><g class="imagelayer"/></g><g class="minor-gridlayer"><g class="x"/><g class="y"/></g><g class="gridlayer"><g class="x"/><g class="y"><path class="ygrid crisp" transform="translate(0,435.14)" d="M60,0h790" style="stroke: rgb(224, 218, 208); stroke-opacity: 1; stroke-width: 1px;"/><path class="ygrid crisp" transform="translate(0,395.29)" d="M60,0h790" style="stroke: rgb(224, 218, 208); stroke-opacity: 1; stroke-width: 1px;"/><path class="ygrid crisp" transform="translate(0,355.43)" d="M60,0h790" style="stroke: rgb(224, 218, 208); stroke-opacity: 1; stroke-width: 1px;"/><path class="ygrid crisp" transform="translate(0,315.57)" d="M60,0h790" style="stroke: rgb(224, 218, 208); stroke-opacity: 1; stroke-width: 1px;"/><path class="ygrid crisp" transform="translate(0,275.72)" d="M60,0h790" style="stroke: rgb(224, 218, 208); stroke-opacity: 1; stroke-width: 1px;"/><path class="ygrid crisp" transform="translate(0,235.86)" d="M60,0h790" style="stroke: rgb(224, 218, 208); stroke-opacity: 1; stroke-width: 1px;"/><path class="ygrid crisp" transform="translate(0,196.01)" d="M60,0h790" style="stroke: rgb(224, 218, 208); stroke-opacity: 1; stroke-width: 1px;"/><path class="ygrid crisp" transform="translate(0,156.15)" d="M60,0h790" style="stroke: rgb(224, 218, 208); stroke-opacity: 1; stroke-width: 1px;"/><path class="ygrid crisp" transform="translate(0,116.29)" d="M60,0h790" style="stroke: rgb(224, 218, 208); stroke-opacity: 1; stroke-width: 1px;"/></g></g><g class="zerolinelayer"/><g class="layer-between"><g class="shapelayer"/><g class="imagelayer"/></g><path class="xlines-below"/><path class="ylines-below"/><g class="overlines-below"/><g class="xaxislayer-below"/><g class="yaxislayer-below"/><g class="overaxes-below"/><g class="overplot"><g class="xy" transform="translate(60,110)" clip-path="url(#clipe418cbxyplot)"><g class="scatterlayer mlayer"><g class="trace scatter tracef339fb" style="stroke-miterlimit: 2;"><g class="fills"><g><path class="js-fill" d="M790,365L0,365L0,357.03L112.86,349.06L225.71,333.11L338.57,309.2L451.43,293.26L564.29,301.23L677.14,277.32L790,253.4" style="fill: rgb(123, 26, 42); fill-opacity: 0.75; stroke-width: 0;"/></g><g><path class="js-fill" d="M0,337.1L112.86,313.19L225.71,277.32L338.57,237.46L451.43,209.56L564.29,213.55L677.14,181.66L790,153.76L790,253.4L677.14,277.32L564.29,301.23L451.43,293.26L338.57,309.2L225.71,333.11L112.86,349.06L0,357.03Z" style="fill: rgb(43, 108, 143); fill-opacity: 0.75; stroke-width: 0;"/></g></g><g class="errorbars"/><g class="lines"><path class="js-line" d="M0,357.03L112.86,349.06L225.71,333.11L338.57,309.2L451.43,293.26L564.29,301.23L677.14,277.32L790,253.4" style="vector-effect: none; fill: none; stroke: rgb(123, 26, 42); stroke-opacity: 1; stroke-width: 0px; opacity: 1;"/></g><g class="points"/><g class="text"/></g><g class="trace scatter tracecea7fc" style="stroke-miterlimit: 2;"><g class="fills"><g><path class="js-fill" d="M0,325.14L112.86,289.27L225.71,245.43L451.43,173.69L564.29,169.7L677.14,125.86L790,89.99L790,153.76L677.14,181.66L564.29,213.55L451.43,209.56L338.57,237.46L225.71,277.32L112.86,313.19L0,337.1Z" style="fill: rgb(74, 124, 89); fill-opacity: 0.75; stroke-width: 0;"/></g></g><g class="errorbars"/><g class="lines"><path class="js-line" d="M0,337.1L112.86,313.19L225.71,277.32L338.57,237.46L451.43,209.56L564.29,213.55L677.14,181.66L790,153.76" style="vector-effect: none; fill: none; stroke: rgb(43, 108, 143); stroke-opacity: 1; stroke-width: 0px; opacity: 1;"/></g><g class="points"/><g class="text"/></g><g class="trace scatter trace87c0bc" style="stroke-miterlimit: 2;"><g class="fills"><g><path class="js-fill" d="M0,321.16L112.86,277.32L225.71,217.53L338.57,177.68L451.43,145.79L564.29,145.79L677.14,97.96L790,58.11L790,89.99L677.14,125.86L564.29,169.7L451.43,173.69L225.71,245.43L112.86,289.27L0,325.14Z" style="fill: rgb(196, 165, 117); fill-opacity: 0.75; stroke-width: 0;"/></g></g><g class="errorbars"/><g class="lines"><path class="js-line" d="M0,325.14L112.86,289.27L225.71,245.43L451.43,173.69L564.29,169.7L677.14,125.86L790,89.99" style="vector-effect: none; fill: none; stroke: rgb(74, 124, 89); stroke-opacity: 1; stroke-width: 0px; opacity: 1;"/></g><g class="points"/><g class="text"/></g><g class="trace scatter tracea573a4" style="stroke-miterlimit: 2;"><g class="fills"><g><path class="js-fill" d="M0,265.36L112.86,225.5L225.71,169.7L338.57,133.83L451.43,101.95L564.29,101.95L677.14,54.12L790,18.25L790,58.11L677.14,97.96L564.29,145.79L451.43,145.79L338.57,177.68L225.71,217.53L112.86,277.32L0,321.16Z" style="fill: rgb(31, 59, 84); fill-opacity: 0.75; stroke-width: 0;"/></g></g><g class="errorbars"/><g class="lines"><path class="js-line" d="M0,321.16L112.86,277.32L225.71,217.53L338.57,177.68L451.43,145.79L564.29,145.79L677.14,97.96L790,58.11" style="vector-effect: none; fill: none; stroke: rgb(196, 165, 117); stroke-opacity: 1; stroke-width: 0px; opacity: 1;"/></g><g class="points"/><g class="text"/></g><g class="trace scatter traced40346" style="stroke-miterlimit: 2;"><g class="fills"/><g class="errorbars"/><g class="lines"><path class="js-line" d="M0,265.36L112.86,225.5L225.71,169.7L338.57,133.83L451.43,101.95L564.29,101.95L677.14,54.12L790,18.25" style="vector-effect: none; fill: none; stroke: rgb(31, 59, 84); stroke-opacity: 1; stroke-width: 0px; opacity: 1;"/></g><g class="points"/><g class="text"/></g></g></g></g><g class="zerolinelayer-above"/><path class="xlines-above crisp" d="M60,475.5H850" style="fill: none; stroke-width: 1px; stroke: rgb(200, 192, 180); stroke-opacity: 1;"/><path class="ylines-above crisp" d="M0,0" style="fill: none;"/><g class="overlines-above"/><g class="xaxislayer-above"><g class="xtick"><text text-anchor="middle" x="0" y="488" transform="translate(60,0)" style="font-family: Georgia, 'Times New Roman', serif; font-size: 10px; fill: rgb(154, 163, 172); fill-opacity: 1; white-space: pre;">2010</text></g><g class="xtick"><text text-anchor="middle" x="0" y="488" style="font-family: Georgia, 'Times New Roman', serif; font-size: 10px; fill: rgb(154, 163, 172); fill-opacity: 1; white-space: pre;" transform="translate(172.86,0)">2012</text></g><g class="xtick"><text text-anchor="middle" x="0" y="488" style="font-family: Georgia, 'Times New Roman', serif; font-size: 10px; fill: rgb(154, 163, 172); fill-opacity: 1; white-space: pre;" transform="translate(285.71000000000004,0)">2014</text></g><g class="xtick"><text text-anchor="middle" x="0" y="488" style="font-family: Georgia, 'Times New Roman', serif; font-size: 10px; fill: rgb(154, 163, 172); fill-opacity: 1; white-space: pre;" transform="translate(398.57,0)">2016</text></g><g class="xtick"><text text-anchor="middle" x="0" y="488" style="font-family: Georgia, 'Times New Roman', serif; font-size: 10px; fill: rgb(154, 163, 172); fill-opacity: 1; white-space: pre;" transform="translate(511.43,0)">2018</text></g><g class="xtick"><text text-anchor="middle" x="0" y="488" style="font-family: Georgia, 'Times New Roman', serif; font-size: 10px; fill: rgb(154, 163, 172); fill-opacity: 1; white-space: pre;" transform="translate(624.29,0)">2020</text></g><g class="xtick"><text text-anchor="middle" x="0" y="488" style="font-family: Georgia, 'Times New Roman', serif; font-size: 10px; fill: rgb(154, 163, 172); fill-opacity: 1; white-space: pre;" transform="translate(737.14,0)">2022</text></g><g class="xtick"><text text-anchor="middle" x="0" y="488" style="font-family: Georgia, 'Times New Roman', serif; font-size: 10px; fill: rgb(154, 163, 172); fill-opacity: 1; white-space: pre;" transform="translate(850,0)">2024</text></g></g><g class="yaxislayer-above"><g class="ytick"><text text-anchor="end" x="59" y="3.5" transform="translate(0,475)" style="font-family: Georgia, 'Times New Roman', serif; font-size: 10px; fill: rgb(154, 163, 172); fill-opacity: 1; white-space: pre;">0</text></g><g class="ytick"><text text-anchor="end" x="59" y="3.5" style="font-family: Georgia, 'Times New Roman', serif; font-size: 10px; fill: rgb(154, 163, 172); fill-opacity: 1; white-space: pre;" transform="translate(0,435.14)">10</text></g><g class="ytick"><text text-anchor="end" x="59" y="3.5" style="font-family: Georgia, 'Times New Roman', serif; font-size: 10px; fill: rgb(154, 163, 172); fill-opacity: 1; white-space: pre;" transform="translate(0,395.29)">20</text></g><g class="ytick"><text text-anchor="end" x="59" y="3.5" style="font-family: Georgia, 'Times New Roman', serif; font-size: 10px; fill: rgb(154, 163, 172); fill-opacity: 1; white-space: pre;" transform="translate(0,355.43)">30</text></g><g class="ytick"><text text-anchor="end" x="59" y="3.5" style="font-family: Georgia, 'Times New Roman', serif; font-size: 10px; fill: rgb(154, 163, 172); fill-opacity: 1; white-space: pre;" transform="translate(0,315.57)">40</text></g><g class="ytick"><text text-anchor="end" x="59" y="3.5" style="font-family: Georgia, 'Times New Roman', serif; font-size: 10px; fill: rgb(154, 163, 172); fill-opacity: 1; white-space: pre;" transform="translate(0,275.72)">50</text></g><g class="ytick"><text text-anchor="end" x="59" y="3.5" style="font-family: Georgia, 'Times New Roman', serif; font-size: 10px; fill: rgb(154, 163, 172); fill-opacity: 1; white-space: pre;" transform="translate(0,235.86)">60</text></g><g class="ytick"><text text-anchor="end" x="59" y="3.5" style="font-family: Georgia, 'Times New Roman', serif; font-size: 10px; fill: rgb(154, 163, 172); fill-opacity: 1; white-space: pre;" transform="translate(0,196.01)">70</text></g><g class="ytick"><text text-anchor="end" x="59" y="3.5" style="font-family: Georgia, 'Times New Roman', serif; font-size: 10px; fill: rgb(154, 163, 172); fill-opacity: 1; white-space: pre;" transform="translate(0,156.15)">80</text></g><g class="ytick"><text text-anchor="end" x="59" y="3.5" style="font-family: Georgia, 'Times New Roman', serif; font-size: 10px; fill: rgb(154, 163, 172); fill-opacity: 1; white-space: pre;" transform="translate(0,116.29)">90</text></g></g><g class="overaxes-above"/></g></g><g class="polarlayer"/><g class="smithlayer"/><g class="ternarylayer"/><g class="geolayer"/><g class="funnelarealayer"/><g class="pielayer"/><g class="iciclelayer"/><g class="treemaplayer"/><g class="sunburstlayer"/><g class="glimages"/><defs id="topdefs-e418cb"><g class="clips"/><clipPath id="legende418cb"><rect width="465" height="29" x="0" y="0"/></clipPath></defs><g class="layer-above"><g class="imagelayer"/><g class="shapelayer"/></g><g class="infolayer"><g class="legend" pointer-events="all" transform="translate(222.5,518.8)"><rect class="bg" shape-rendering="crispEdges" style="stroke: rgb(68, 68, 68); stroke-opacity: 1; fill: rgb(0, 0, 0); fill-opacity: 0; stroke-width: 0px;" width="465" height="29" x="0" y="0"/><g class="scrollbox" transform="" clip-path="url(#legende418cb)"><g class="groups"><g class="traces" transform="translate(0,14.5)" style="opacity: 1;"><text class="legendtext" text-anchor="start" x="40" y="3.9" style="font-family: Georgia, 'Times New Roman', serif; font-size: 10px; fill: rgb(90, 100, 114); fill-opacity: 1; white-space: pre;">Other</text><g class="layers"><g class="legendfill"><path class="js-fill" d="M5,-2h30v6h-30z" style="stroke-width: 0; fill: rgb(31, 59, 84); fill-opacity: 0.75;"/></g><g class="legendlines"><path class="js-line" d="M5,-2h30" style="fill: none; stroke: rgb(31, 59, 84); stroke-opacity: 1; stroke-width: 0px;"/></g><g class="legendsymbols"><g class="legendpoints"/></g></g><rect class="legendtoggle" x="0" y="-9.5" width="68.15625" height="19" style="fill: rgb(0, 0, 0); fill-opacity: 0;"/></g><g class="traces" transform="translate(70.65625,14.5)" style="opacity: 1;"><text class="legendtext" text-anchor="start" x="40" y="3.9" style="font-family: Georgia, 'Times New Roman', serif; font-size: 10px; fill: rgb(90, 100, 114); fill-opacity: 1; white-space: pre;">Eagle Ford</text><g class="layers"><g class="legendfill"><path class="js-fill" d="M5,-2h30v6h-30z" style="stroke-width: 0; fill: rgb(196, 165, 117); fill-opacity: 0.75;"/></g><g class="legendlines"><path class="js-line" d="M5,-2h30" style="fill: none; stroke: rgb(196, 165, 117); stroke-opacity: 1; stroke-width: 0px;"/></g><g class="legendsymbols"><g class="legendpoints"/></g></g><rect class="legendtoggle" x="0" y="-9.5" width="90.5" height="19" style="fill: rgb(0, 0, 0); fill-opacity: 0;"/></g><g class="traces" transform="translate(163.65625,14.5)" style="opacity: 1;"><text class="legendtext" text-anchor="start" x="40" y="3.9" style="font-family: Georgia, 'Times New Roman', serif; font-size: 10px; fill: rgb(90, 100, 114); fill-opacity: 1; white-space: pre;">Haynesville</text><g class="layers"><g class="legendfill"><path class="js-fill" d="M5,-2h30v6h-30z" style="stroke-width: 0; fill: rgb(74, 124, 89); fill-opacity: 0.75;"/></g><g class="legendlines"><path class="js-line" d="M5,-2h30" style="fill: none; stroke: rgb(74, 124, 89); stroke-opacity: 1; stroke-width: 0px;"/></g><g class="legendsymbols"><g class="legendpoints"/></g></g><rect class="legendtoggle" x="0" y="-9.5" width="94.140625" height="19" style="fill: rgb(0, 0, 0); fill-opacity: 0;"/></g><g class="traces" transform="translate(260.296875,14.5)" style="opacity: 1;"><text class="legendtext" text-anchor="start" x="40" y="3.9" style="font-family: Georgia, 'Times New Roman', serif; font-size: 10px; fill: rgb(90, 100, 114); fill-opacity: 1; white-space: pre;">Appalachia</text><g class="layers"><g class="legendfill"><path class="js-fill" d="M5,-2h30v6h-30z" style="stroke-width: 0; fill: rgb(43, 108, 143); fill-opacity: 0.75;"/></g><g class="legendlines"><path class="js-line" d="M5,-2h30" style="fill: none; stroke: rgb(43, 108, 143); stroke-opacity: 1; stroke-width: 0px;"/></g><g class="legendsymbols"><g class="legendpoints"/></g></g><rect class="legendtoggle" x="0" y="-9.5" width="92.1064453125" height="19" style="fill: rgb(0, 0, 0); fill-opacity: 0;"/></g><g class="traces" transform="translate(354.9033203125,14.5)" style="opacity: 1;"><text class="legendtext" text-anchor="start" x="40" y="3.9" style="font-family: Georgia, 'Times New Roman', serif; font-size: 10px; fill: rgb(90, 100, 114); fill-opacity: 1; white-space: pre;">Permian Basin</text><g class="layers"><g class="legendfill"><path class="js-fill" d="M5,-2h30v6h-30z" style="stroke-width: 0; fill: rgb(123, 26, 42); fill-opacity: 0.75;"/></g><g class="legendlines"><path class="js-line" d="M5,-2h30" style="fill: none; stroke: rgb(123, 26, 42); stroke-opacity: 1; stroke-width: 0px;"/></g><g class="legendsymbols"><g class="legendpoints"/></g></g><rect class="legendtoggle" x="0" y="-9.5" width="107.375" height="19" style="fill: rgb(0, 0, 0); fill-opacity: 0;"/></g></g></g><rect class="scrollbar" rx="20" ry="3" width="0" height="0" style="fill: rgb(128, 139, 164); fill-opacity: 1;" x="0" y="0"/></g><g class="g-gtitle"/><g class="g-xtitle"/><g class="g-ytitle"/><g class="annotation" data-index="0" style="opacity: 1;"><g class="annotation-text-g" transform="rotate(0,326,33.499999999999986)"><g class="cursor-pointer" transform="translate(60,19)"><rect class="bg" x="0.5" y="0.5" width="531" height="28" style="stroke-width: 1px; stroke: rgb(0, 0, 0); stroke-opacity: 0; fill: rgb(0, 0, 0); fill-opacity: 0;"/><text class="annotation-text" text-anchor="middle" x="266.0390625" y="22" style="font-family: Georgia, 'Times New Roman', serif; font-size: 22px; fill: rgb(28, 43, 58); fill-opacity: 1; white-space: pre;"><tspan style="font-weight:bold">US Marketable Natural Gas Production by Play</tspan></text></g></g></g><g class="annotation" data-index="1" style="opacity: 1;"><g class="annotation-text-g" transform="rotate(0,78,72.5)"><g class="cursor-pointer" transform="translate(60,63)"><rect class="bg" x="0.5" y="0.5" width="35" height="18" style="stroke-width: 1px; stroke: rgb(0, 0, 0); stroke-opacity: 0; fill: rgb(0, 0, 0); fill-opacity: 0;"/><text class="annotation-text" text-anchor="middle" x="18.1015625" y="14" style="font-family: Georgia, 'Times New Roman', serif; font-size: 13px; fill: rgb(90, 100, 114); fill-opacity: 1; white-space: pre;">Bcf/d</text></g></g></g><g class="annotation" data-index="2" style="opacity: 1;"><g class="annotation-text-g" transform="rotate(0,176,508)"><g class="cursor-pointer" transform="translate(60,501)"><rect class="bg" x="0.5" y="0.5" width="231" height="13" style="stroke-width: 1px; stroke: rgb(0, 0, 0); stroke-opacity: 0; fill: rgb(0, 0, 0); fill-opacity: 0;"/><text class="annotation-text" text-anchor="middle" x="115.84375" y="10" style="font-family: Georgia, 'Times New Roman', serif; font-size: 9px; fill: rgb(154, 163, 172); fill-opacity: 1; white-space: pre;"><tspan style="font-style:italic">Source: EIA; Natural Gas Intelligence; Wood Mackenzie</tspan></text></g></g></g></g></svg>