<svg class="main-svg" xmlns="http://www.w3.org/2000/svg" xmlns:xlink="http://www.w3.org/1999/xlink" width="900" height="580" style="" viewBox="0 0 900 580"><rect x="0" y="0" width="900" height="580" style="fill: rgb(240, 235, 227); fill-opacity: 1;"/><defs id="defs-3aca69"><g class="clips"><clipPath id="clip3aca69xyplot" class="plotclip"><rect width="790" height="401"/></clipPath><clipPath class="axesclip" id="clip3aca69x"><rect x="60" y="0" width="790" height="580"/></clipPath><clipPath class="axesclip" id="clip3aca69y"><rect x="0" y="90" width="900" height="401"/></clipPath><clipPath class="axesclip" id="clip3aca69xy"><rect x="60" y="90" width="790" height="401"/></clipPath></g><g class="gradients"/><g class="patterns"/></defs><g class="bglayer"/><g class="layer-below"><g class="imagelayer"/><g class="shapelayer"/></g><g class="cartesianlayer"><g class="subplot xy"><g class="layer-subplot"><g class="shapelayer"/><g class="imagelayer"/></g><g class="minor-gridlayer"><g class="x"/><g class="y"/></g><g class="gridlayer"><g class="x"/><g class="y"><path class="ygrid crisp" transform="translate(0,488.87)" d="M60,0h790" style="stroke: rgb(224, 218, 208); stroke-opacity: 1; stroke-width: 1px;"/><path class="ygrid crisp" transform="translate(0,415.26)" d="M60,0h790" style="stroke: rgb(224, 218, 208); stroke-opacity: 1; stroke-width: 1px;"/><path class="ygrid crisp" transform="translate(0,358.17)" d="M60,0h790" style="stroke: rgb(224, 218, 208); stroke-opacity: 1; stroke-width: 1px;"/><path class="ygrid crisp" transform="translate(0,311.52)" d="M60,0h790" style="stroke: rgb(224, 218, 208); stroke-opacity: 1; stroke-width: 1px;"/><path class="ygrid crisp" transform="translate(0,272.08000000000004)" d="M60,0h790" style="stroke: rgb(224, 218, 208); stroke-opacity: 1; stroke-width: 1px;"/><path class="ygrid crisp" transform="translate(0,237.91)" d="M60,0h790" style="stroke: rgb(224, 218, 208); stroke-opacity: 1; stroke-width: 1px;"/><path class="ygrid crisp" transform="translate(0,207.78)" d="M60,0h790" style="stroke: rgb(224, 218, 208); stroke-opacity: 1; stroke-width: 1px;"/><path class="ygrid crisp" transform="translate(0,180.82)" d="M60,0h790" style="stroke: rgb(224, 218, 208); stroke-opacity: 1; stroke-width: 1px;"/><path class="ygrid crisp" transform="translate(0,156.43)" d="M60,0h790" style="stroke: rgb(224, 218, 208); stroke-opacity: 1; stroke-width: 1px;"/><path class="ygrid crisp" transform="translate(0,134.17000000000002)" d="M60,0h790" style="stroke: rgb(224, 218, 208); stroke-opacity: 1; stroke-width: 1px;"/><path class="ygrid crisp" transform="translate(0,113.69)" d="M60,0h790" style="stroke: rgb(224, 218, 208); stroke-opacity: 1; stroke-width: 1px;"/><path class="ygrid crisp" transform="translate(0,94.73)" d="M60,0h790" style="stroke: rgb(224, 218, 208); stroke-opacity: 1; stroke-width: 1px;"/></g></g><g class="zerolinelayer"/><g class="layer-between"><g class="shapelayer"/><g class="imagelayer"/></g><path class="xlines-below"/><path class="ylines-below"/><g class="overlines-below"/><g class="xaxislayer-below"/><g class="yaxislayer-below"/><g class="overaxes-below"/><g class="overplot"><g class="xy" transform="translate(60,90)" clip-path="url(#clip3aca69xyplot)"><g class="scatterlayer mlayer"><g class="trace scatter trace3b9230" style="stroke-miterlimit: 2; opacity: 1;"><g class="fills"/><g class="errorbars"/><g class="lines"/><g class="points"><path class="point" transform="translate(274.06,375.95)" d="M4,0A4,4 0 1,1 0,-4A4,4 0 0,1 4,0Z" style="opacity: 0.8; stroke-width: 0px; fill: rgb(123, 26, 42); fill-opacity: 1;"/><path class="point" transform="translate(212.2,200.89)" d="M4,0A4,4 0 1,1 0,-4A4,4 0 0,1 4,0Z" style="opacity: 0.8; stroke-width: 0px; fill: rgb(123, 26, 42); fill-opacity: 1;"/><path class="point" transform="translate(285.38,234.29)" d="M4,0A4,4 0 1,1 0,-4A4,4 0 0,1 4,0Z" style="opacity: 0.8; stroke-width: 0px; fill: rgb(123, 26, 42); fill-opacity: 1;"/><path class="point" transform="translate(262.7,60.28)" d="M4,0A4,4 0 1,1 0,-4A4,4 0 0,1 4,0Z" style="opacity: 0.8; stroke-width: 0px; fill: rgb(123, 26, 42); fill-opacity: 1;"/><path class="point" transform="translate(44.5,134.26)" d="M4,0A4,4 0 1,1 0,-4A4,4 0 0,1 4,0Z" style="opacity: 0.8; stroke-width: 0px; fill: rgb(123, 26, 42); fill-opacity: 1;"/><path class="point" transform="translate(299.32,85.06)" d="M4,0A4,4 0 1,1 0,-4A4,4 0 0,1 4,0Z" style="opacity: 0.8; stroke-width: 0px; fill: rgb(123, 26, 42); fill-opacity: 1;"/><path class="point" transform="translate(272.24,203.65)" d="M4,0A4,4 0 1,1 0,-4A4,4 0 0,1 4,0Z" style="opacity: 0.8; stroke-width: 0px; fill: rgb(123, 26, 42); fill-opacity: 1;"/><path class="point" transform="translate(275.76,308.41)" d="M4,0A4,4 0 1,1 0,-4A4,4 0 0,1 4,0Z" style="opacity: 0.8; stroke-width: 0px; fill: rgb(123, 26, 42); fill-opacity: 1;"/></g><g class="text"><g class="textpoint" transform="translate(0,-8.25)"><text x="274.06" y="375.95" text-anchor="middle" style="font-family: Georgia, 'Times New Roman', serif; font-size: 9px; fill: rgb(123, 26, 42); fill-opacity: 1; white-space: pre;">Llama 3.1 70B</text></g><g class="textpoint" transform="translate(0,-8.25)"><text x="212.2" y="200.89" text-anchor="middle" style="font-family: Georgia, 'Times New Roman', serif; font-size: 9px; fill: rgb(123, 26, 42); fill-opacity: 1; white-space: pre;">Mistral 7B</text></g><g class="textpoint" transform="translate(0,-8.25)"><text x="285.38" y="234.29" text-anchor="middle" style="font-family: Georgia, 'Times New Roman', serif; font-size: 9px; fill: rgb(123, 26, 42); fill-opacity: 1; white-space: pre;">Gemma 2 9B</text></g><g class="textpoint" transform="translate(0,-8.25)"><text x="262.7" y="60.28" text-anchor="middle" style="font-family: Georgia, 'Times New Roman', serif; font-size: 9px; fill: rgb(123, 26, 42); fill-opacity: 1; white-space: pre;">Phi-3 Mini</text></g><g class="textpoint" transform="translate(0,-8.25)"><text x="44.5" y="134.26" text-anchor="middle" style="font-family: Georgia, 'Times New Roman', serif; font-size: 9px; fill: rgb(123, 26, 42); fill-opacity: 1; white-space: pre;">Qwen 2.5 72B</text></g><g class="textpoint" transform="translate(0,-8.25)"><text x="299.32" y="85.06" text-anchor="middle" style="font-family: Georgia, 'Times New Roman', serif; font-size: 9px; fill: rgb(123, 26, 42); fill-opacity: 1; white-space: pre;">DeepSeek V2</text></g><g class="textpoint" transform="translate(0,-8.25)"><text x="272.24" y="203.65" text-anchor="middle" style="font-family: Georgia, 'Times New Roman', serif; font-size: 9px; fill: rgb(123, 26, 42); fill-opacity: 1; white-space: pre;">Falcon 180B</text></g><g class="textpoint" transform="translate(0,-8.25)"><text x="275.76" y="308.41" text-anchor="middle" style="font-family: Georgia, 'Times New Roman', serif; font-size: 9px; fill: rgb(123, 26, 42); fill-opacity: 1; white-space: pre;">Yi 34B</text></g></g></g><g class="trace scatter trace8cb9d8" style="stroke-miterlimit: 2; opacity: 1;"><g class="fills"/><g class="errorbars"/><g class="lines"/><g class="points"><path class="point" transform="translate(687.21,25.05)" d="M4,0A4,4 0 1,1 0,-4A4,4 0 0,1 4,0Z" style="opacity: 0.8; stroke-width: 0px; fill: rgb(43, 108, 143); fill-opacity: 1;"/><path class="point" transform="translate(491.89,48.82)" d="M4,0A4,4 0 1,1 0,-4A4,4 0 0,1 4,0Z" style="opacity: 0.8; stroke-width: 0px; fill: rgb(43, 108, 143); fill-opacity: 1;"/><path class="point" transform="translate(728.75,223.82)" d="M4,0A4,4 0 1,1 0,-4A4,4 0 0,1 4,0Z" style="opacity: 0.8; stroke-width: 0px; fill: rgb(43, 108, 143); fill-opacity: 1;"/><path class="point" transform="translate(700.62,127.42)" d="M4,0A4,4 0 1,1 0,-4A4,4 0 0,1 4,0Z" style="opacity: 0.8; stroke-width: 0px; fill: rgb(43, 108, 143); fill-opacity: 1;"/><path class="point" transform="translate(719.58,298.67)" d="M4,0A4,4 0 1,1 0,-4A4,4 0 0,1 4,0Z" style="opacity: 0.8; stroke-width: 0px; fill: rgb(43, 108, 143); fill-opacity: 1;"/><path class="point" transform="translate(641.94,241.8)" d="M4,0A4,4 0 1,1 0,-4A4,4 0 0,1 4,0Z" style="opacity: 0.8; stroke-width: 0px; fill: rgb(43, 108, 143); fill-opacity: 1;"/><path class="point" transform="translate(745.5,70.41)" d="M4,0A4,4 0 1,1 0,-4A4,4 0 0,1 4,0Z" style="opacity: 0.8; stroke-width: 0px; fill: rgb(43, 108, 143); fill-opacity: 1;"/></g><g class="text"><g class="textpoint" transform="translate(0,-8.25)"><text x="687.21" y="25.05" text-anchor="middle" style="font-family: Georgia, 'Times New Roman', serif; font-size: 9px; fill: rgb(43, 108, 143); fill-opacity: 1; white-space: pre;">GPT-4o</text></g><g class="textpoint" transform="translate(0,-8.25)"><text x="491.89" y="48.82" text-anchor="middle" style="font-family: Georgia, 'Times New Roman', serif; font-size: 9px; fill: rgb(43, 108, 143); fill-opacity: 1; white-space: pre;">Claude Sonnet 4</text></g><g class="textpoint" transform="translate(0,-8.25)"><text x="728.75" y="223.82" text-anchor="middle" style="font-family: Georgia, 'Times New Roman', serif; font-size: 9px; fill: rgb(43, 108, 143); fill-opacity: 1; white-space: pre;">Gemini 1.5 Pro</text></g><g class="textpoint" transform="translate(0,-8.25)"><text x="700.62" y="127.42" text-anchor="middle" style="font-family: Georgia, 'Times New Roman', serif; font-size: 9px; fill: rgb(43, 108, 143); fill-opacity: 1; white-space: pre;">GPT-4 Turbo</text></g><g class="textpoint" transform="translate(0,-8.25)"><text x="719.58" y="298.67" text-anchor="middle" style="font-family: Georgia, 'Times New Roman', serif; font-size: 9px; fill: rgb(43, 108, 143); fill-opacity: 1; white-space: pre;">Claude Opus 4</text></g><g class="textpoint" transform="translate(0,-8.25)"><text x="641.94" y="241.8" text-anchor="middle" style="font-family: Georgia, 'Times New Roman', serif; font-size: 9px; fill: rgb(43, 108, 143); fill-opacity: 1; white-space: pre;">Gemini Ultra</text></g><g class="textpoint" transform="translate(0,-8.25)"><text x="745.5" y="70.41" text-anchor="middle" style="font-family: Georgia, 'Times New Roman', serif; font-size: 9px; fill: rgb(43, 108, 143); fill-opacity: 1; white-space: pre;">GPT-4o Mini</text></g></g></g></g></g></g><g class="zerolinelayer-above"/><path class="xlines-above crisp" d="M60,491.5H850" style="fill: none; stroke-width: 1px; stroke: rgb(200, 192, 180); stroke-opacity: 1;"/><path class="ylines-above crisp" d="M0,0" style="fill: none;"/><g class="overlines-above"/><g class="xaxislayer-above"><g class="xtick"><text text-anchor="middle" x="0" y="501.5" transform="translate(110.83,0)" style="font-family: Georgia, 'Times New Roman', serif; font-size: 7.5px; fill: rgb(154, 163, 172); fill-opacity: 1; white-space: pre;">5</text></g><g class="xtick"><text text-anchor="middle" x="0" y="504" style="font-family: Georgia, 'Times New Roman', serif; font-size: 10px; fill: rgb(154, 163, 172); fill-opacity: 1; white-space: pre;" transform="translate(186.45,0)">0.1</text></g><g class="xtick"><text text-anchor="middle" x="0" y="501.5" style="font-family: Georgia, 'Times New Roman', serif; font-size: 7.5px; fill: rgb(154, 163, 172); fill-opacity: 1; white-space: pre;" transform="translate(262.06,0)">2</text></g><g class="xtick"><text text-anchor="middle" x="0" y="501.5" style="font-family: Georgia, 'Times New Roman', serif; font-size: 7.5px; fill: rgb(154, 163, 172); fill-opacity: 1; white-space: pre;" transform="translate(362.01,0)">5</text></g><g class="xtick"><text text-anchor="middle" x="0" y="504" style="font-family: Georgia, 'Times New Roman', serif; font-size: 10px; fill: rgb(154, 163, 172); fill-opacity: 1; white-space: pre;" transform="translate(437.62,0)">1</text></g><g class="xtick"><text text-anchor="middle" x="0" y="501.5" style="font-family: Georgia, 'Times New Roman', serif; font-size: 7.5px; fill: rgb(154, 163, 172); fill-opacity: 1; white-space: pre;" transform="translate(513.23,0)">2</text></g><g class="xtick"><text text-anchor="middle" x="0" y="501.5" style="font-family: Georgia, 'Times New Roman', serif; font-size: 7.5px; fill: rgb(154, 163, 172); fill-opacity: 1; white-space: pre;" transform="translate(613.18,0)">5</text></g><g class="xtick"><text text-anchor="middle" x="0" y="504" style="font-family: Georgia, 'Times New Roman', serif; font-size: 10px; fill: rgb(154, 163, 172); fill-opacity: 1; white-space: pre;" transform="translate(688.79,0)">10</text></g><g class="xtick"><text text-anchor="middle" x="0" y="501.5" style="font-family: Georgia, 'Times New Roman', serif; font-size: 7.5px; fill: rgb(154, 163, 172); fill-opacity: 1; white-space: pre;" transform="translate(764.4,0)">2</text></g></g><g class="yaxislayer-above"><g class="ytick"><text text-anchor="end" x="59" y="3.5" transform="translate(0,488.87)" style="font-family: Georgia, 'Times New Roman', serif; font-size: 10px; fill: rgb(154, 163, 172); fill-opacity: 1; white-space: pre;">1.5</text></g><g class="ytick"><text text-anchor="end" x="59" y="3.5" style="font-family: Georgia, 'Times New Roman', serif; font-size: 10px; fill: rgb(154, 163, 172); fill-opacity: 1; white-space: pre;" transform="translate(0,415.26)">2</text></g><g class="ytick"><text text-anchor="end" x="59" y="3.5" style="font-family: Georgia, 'Times New Roman', serif; font-size: 10px; fill: rgb(154, 163, 172); fill-opacity: 1; white-space: pre;" transform="translate(0,358.17)">2.5</text></g><g class="ytick"><text text-anchor="end" x="59" y="3.5" style="font-family: Georgia, 'Times New Roman', serif; font-size: 10px; fill: rgb(154, 163, 172); fill-opacity: 1; white-space: pre;" transform="translate(0,311.52)">3</text></g><g class="ytick"><text text-anchor="end" x="59" y="3.5" style="font-family: Georgia, 'Times New Roman', serif; font-size: 10px; fill: rgb(154, 163, 172); fill-opacity: 1; white-space: pre;" transform="translate(0,272.08000000000004)">3.5</text></g><g class="ytick"><text text-anchor="end" x="59" y="3.5" style="font-family: Georgia, 'Times New Roman', serif; font-size: 10px; fill: rgb(154, 163, 172); fill-opacity: 1; white-space: pre;" transform="translate(0,237.91)">4</text></g><g class="ytick"><text text-anchor="end" x="59" y="3.5" style="font-family: Georgia, 'Times New Roman', serif; font-size: 10px; fill: rgb(154, 163, 172); fill-opacity: 1; white-space: pre;" transform="translate(0,207.78)">4.5</text></g><g class="ytick"><text text-anchor="end" x="59" y="3.5" style="font-family: Georgia, 'Times New Roman', serif; font-size: 10px; fill: rgb(154, 163, 172); fill-opacity: 1; white-space: pre;" transform="translate(0,180.82)">5</text></g><g class="ytick"><text text-anchor="end" x="59" y="3.5" style="font-family: Georgia, 'Times New Roman', serif; font-size: 10px; fill: rgb(154, 163, 172); fill-opacity: 1; white-space: pre;" transform="translate(0,156.43)">5.5</text></g><g class="ytick"><text text-anchor="end" x="59" y="3.5" style="font-family: Georgia, 'Times New Roman', serif; font-size: 10px; fill: rgb(154, 163, 172); fill-opacity: 1; white-space: pre;" transform="translate(0,134.17000000000002)">6</text></g><g class="ytick"><text text-anchor="end" x="59" y="3.5" style="font-family: Georgia, 'Times New Roman', serif; font-size: 10px; fill: rgb(154, 163, 172); fill-opacity: 1; white-space: pre;" transform="translate(0,113.69)">6.5</text></g><g class="ytick"><text text-anchor="end" x="59" y="3.5" style="font-family: Georgia, 'Times New Roman', serif; font-size: 10px; fill: rgb(154, 163, 172); fill-opacity: 1; white-space: pre;" transform="translate(0,94.73)">7</text></g></g><g class="overaxes-above"/></g></g><g class="polarlayer"/><g class="smithlayer"/><g class="ternarylayer"/><g class="geolayer"/><g class="funnelarealayer"/><g class="pielayer"/><g class="iciclelayer"/><g class="treemaplayer"/><g class="sunburstlayer"/><g class="glimages"/><defs id="topdefs-3aca69"><g class="clips"/><clipPath id="legend3aca69"><rect width="209" height="29" x="0" y="0"/></clipPath></defs><g class="layer-above"><g class="imagelayer"/><g class="shapelayer"/></g><g class="infolayer"><g class="legend" pointer-events="all" transform="translate(350.5,539.1200000000001)"><rect class="bg" shape-rendering="crispEdges" style="stroke: rgb(68, 68, 68); stroke-opacity: 1; fill: rgb(0, 0, 0); fill-opacity: 0; stroke-width: 0px;" width="209" height="29" x="0" y="0"/><g class="scrollbox" transform="" clip-path="url(#legend3aca69)"><g class="groups"><g class="traces" transform="translate(0,14.5)" style="opacity: 1;"><text class="legendtext" text-anchor="start" x="40" y="3.9" style="font-family: Georgia, 'Times New Roman', serif; font-size: 10px; fill: rgb(90, 100, 114); fill-opacity: 1; white-space: pre;">Open Source</text><g class="layers" style="opacity: 1;"><g class="legendfill"/><g class="legendlines"/><g class="legendsymbols"><g class="legendpoints"><path class="scatterpts" transform="translate(20,0)" d="M4,0A4,4 0 1,1 0,-4A4,4 0 0,1 4,0Z" style="opacity: 0.8; stroke-width: 0px; fill: rgb(123, 26, 42); fill-opacity: 1;"/></g></g></g><rect class="legendtoggle" x="0" y="-9.5" width="99.046875" height="19" style="fill: rgb(0, 0, 0); fill-opacity: 0;"/></g><g class="traces" transform="translate(101.546875,14.5)" style="opacity: 1;"><text class="legendtext" text-anchor="start" x="40" y="3.9" style="font-family: Georgia, 'Times New Roman', serif; font-size: 10px; fill: rgb(90, 100, 114); fill-opacity: 1; white-space: pre;">Closed Source</text><g class="layers" style="opacity: 1;"><g class="legendfill"/><g class="legendlines"/><g class="legendsymbols"><g class="legendpoints"><path class="scatterpts" transform="translate(20,0)" d="M4,0A4,4 0 1,1 0,-4A4,4 0 0,1 4,0Z" style="opacity: 0.8; stroke-width: 0px; fill: rgb(43, 108, 143); fill-opacity: 1;"/></g></g></g><rect class="legendtoggle" x="0" y="-9.5" width="104.71875" height="19" style="fill: rgb(0, 0, 0); fill-opacity: 0;"/></g></g></g><rect class="scrollbar" rx="20" ry="3" width="0" height="0" style="fill: rgb(128, 139, 164); fill-opacity: 1;" x="0" y="0"/></g><g class="g-gtitle"/><g class="g-xtitle"><text class="xtitle" x="455" y="528.2" text-anchor="middle" style="opacity: 1; font-family: Georgia, 'Times New Roman', serif; font-size: 11px; fill: rgb(90, 100, 114); fill-opacity: 1; white-space: pre;">Cost per 1M Tokens ($)</text></g><g class="g-ytitle"><text class="ytitle" transform="rotate(-90,27.009375,290.5)" x="27.009375" y="290.5" text-anchor="middle" style="opacity: 1; font-family: Georgia, 'Times New Roman', serif; font-size: 11px; fill: rgb(90, 100, 114); fill-opacity: 1; white-space: pre;">Total Usage in Millions of Tokens</text></g><g class="annotation" data-index="0" style="opacity: 1;"><g class="annotation-text-g" transform="rotate(0,238.5,17.499999999999986)"><g class="cursor-pointer" transform="translate(60,3)"><rect class="bg" x="0.5" y="0.5" width="356" height="28" style="stroke-width: 1px; stroke: rgb(0, 0, 0); stroke-opacity: 0; fill: rgb(0, 0, 0); fill-opacity: 0;"/><text class="annotation-text" text-anchor="middle" x="178.4375" y="22" style="font-family: Georgia, 'Times New Roman', serif; font-size: 22px; fill: rgb(28, 43, 58); fill-opacity: 1; white-space: pre;"><tspan style="font-weight:bold">Cost vs. Usage Based on Source</tspan></text></g></g></g><g class="annotation" data-index="1" style="opacity: 1;"><g class="annotation-text-g" transform="rotate(0,264,52.499999999999986)"><g class="cursor-pointer" transform="translate(60,43)"><rect class="bg" x="0.5" y="0.5" width="407" height="18" style="stroke-width: 1px; stroke: rgb(0, 0, 0); stroke-opacity: 0; fill: rgb(0, 0, 0); fill-opacity: 0;"/><text class="annotation-text" text-anchor="middle" x="204.1953125" y="14" style="font-family: Georgia, 'Times New Roman', serif; font-size: 13px; fill: rgb(90, 100, 114); fill-opacity: 1; white-space: pre;">Total monthly token usage (log scale) vs. cost per 1M tokens (log scale)</text></g></g></g><g class="annotation" data-index="2" style="opacity: 1;"><g class="annotation-text-g" transform="rotate(0,103,524)"><g class="cursor-pointer" transform="translate(60,517)"><rect class="bg" x="0.5" y="0.5" width="85" height="13" style="stroke-width: 1px; stroke: rgb(0, 0, 0); stroke-opacity: 0; fill: rgb(0, 0, 0); fill-opacity: 0;"/><text class="annotation-text" text-anchor="middle" x="43.21875" y="10" style="font-family: Georgia, 'Times New Roman', serif; font-size: 9px; fill: rgb(154, 163, 172); fill-opacity: 1; white-space: pre;"><tspan style="font-style:italic">Source: OpenRouter</tspan></text></g></g></g></g></svg>