<svg class="main-svg" xmlns="http://www.w3.org/2000/svg" xmlns:xlink="http://www.w3.org/1999/xlink" width="300" height="80" style="" viewBox="0 0 300 80"><rect x="0" y="0" width="300" height="80" style="fill: rgb(240, 235, 227); fill-opacity: 1;"/><defs id="defs-33c1cd"><g class="clips"><clipPath id="clip33c1cdxyplot" class="plotclip"><rect width="292" height="72"/></clipPath><clipPath class="axesclip" id="clip33c1cdx"><rect x="4" y="0" width="292" height="80"/></clipPath><clipPath class="axesclip" id="clip33c1cdy"><rect x="0" y="4" width="300" height="72"/></clipPath><clipPath class="axesclip" id="clip33c1cdxy"><rect x="4" y="4" width="292" height="72"/></clipPath></g><g class="gradients"/><g class="patterns"/></defs><g class="bglayer"/><g class="layer-below"><g class="imagelayer"/><g class="shapelayer"/></g><g class="cartesianlayer"><g class="subplot xy"><g class="layer-subplot"><g class="shapelayer"/><g class="imagelayer"/></g><g class="minor-gridlayer"><g class="x"/><g class="y"/></g><g class="gridlayer"><g class="x"/><g class="y"/></g><g class="zerolinelayer"/><g class="layer-between"><g class="shapelayer"/><g class="imagelayer"/></g><path class="xlines-below"/><path class="ylines-below"/><g class="overlines-below"/><g class="xaxislayer-below"/><g class="yaxislayer-below"/><g class="overaxes-below"/><g class="overplot"><g class="xy" transform="translate(4,4)" clip-path="url(#clip33c1cdxyplot)"><g class="scatterlayer mlayer"><g class="trace scatter trace9a64d5" style="stroke-miterlimit: 2;"><g class="fills"><g><path class="js-fill" d="M292,72L0,72L0,44.08L26.55,41.85L53.09,38.78L79.64,35.15L106.18,30.68L132.73,26.49L159.27,23.14L185.82,20.63L212.36,17.28L238.91,13.37L265.45,8.35L292,3.6" style="fill: rgb(123, 26, 42); fill-opacity: 0.5; stroke-width: 0;"/></g></g><g class="errorbars"/><g class="lines"><path class="js-line" d="M0,44.08L26.55,41.85L53.09,38.78L79.64,35.15L106.18,30.68L132.73,26.49L159.27,23.14L185.82,20.63L212.36,17.28L238.91,13.37L265.45,8.35L292,3.6" style="vector-effect: none; fill: none; stroke: rgb(123, 26, 42); stroke-opacity: 1; stroke-width: 2.5px; opacity: 1;"/></g><g class="points"/><g class="text"/></g><g class="trace scatter tracec8158e" style="stroke-miterlimit: 2;"><g class="fills"><g><path class="js-fill" d="M292,72L0,72L0,60.27L26.55,57.76L53.09,54.41L106.18,45.48L132.73,39.89L212.36,20.91L238.91,15.88L265.45,10.58L292,4.44" style="fill: rgb(43, 108, 143); fill-opacity: 0.5; stroke-width: 0;"/></g></g><g class="errorbars"/><g class="lines"><path class="js-line" d="M0,60.27L26.55,57.76L53.09,54.41L106.18,45.48L132.73,39.89L212.36,20.91L238.91,15.88L265.45,10.58L292,4.44" style="vector-effect: none; fill: none; stroke: rgb(43, 108, 143); stroke-opacity: 1; stroke-width: 2.5px; opacity: 1;"/></g><g class="points"/><g class="text"/></g><g class="trace scatter tracee09cee" style="stroke-miterlimit: 2;"><g class="fills"><g><path class="js-fill" d="M292,72L0,72L0,61.39L53.09,58.04L79.64,55.53L132.73,49.11L159.27,45.48L212.36,38.78L238.91,36.26L292,30.12" style="fill: rgb(74, 124, 89); fill-opacity: 0.5; stroke-width: 0;"/></g></g><g class="errorbars"/><g class="lines"><path class="js-line" d="M0,61.39L53.09,58.04L79.64,55.53L132.73,49.11L159.27,45.48L212.36,38.78L238.91,36.26L292,30.12" style="vector-effect: none; fill: none; stroke: rgb(74, 124, 89); stroke-opacity: 1; stroke-width: 2.5px; opacity: 1;"/></g><g class="points"/><g class="text"/></g></g></g></g><g class="zerolinelayer-above"/><path class="xlines-above crisp" d="M0,0" style="fill: none;"/><path class="ylines-above crisp" d="M0,0" style="fill: none;"/><g class="overlines-above"/><g class="xaxislayer-above"/><g class="yaxislayer-above"/><g class="overaxes-above"/></g></g><g class="polarlayer"/><g class="smithlayer"/><g class="ternarylayer"/><g class="geolayer"/><g class="funnelarealayer"/><g class="pielayer"/><g class="iciclelayer"/><g class="treemaplayer"/><g class="sunburstlayer"/><g class="glimages"/><defs id="topdefs-33c1cd"><g class="clips"/></defs><g class="layer-above"><g class="imagelayer"/><g class="shapelayer"/></g><g class="infolayer"><g class="g-gtitle"/></g></svg>