<svg class="main-svg" xmlns="http://www.w3.org/2000/svg" xmlns:xlink="http://www.w3.org/1999/xlink" width="900" height="560" style="" viewBox="0 0 900 560"><rect x="0" y="0" width="900" height="560" style="fill: rgb(255, 250, 247); fill-opacity: 1;"/><defs id="defs-655201"><g class="clips"><clipPath id="clip655201xyplot" class="plotclip"><rect width="780" height="383"/></clipPath><clipPath class="axesclip" id="clip655201x"><rect x="60" y="0" width="780" height="560"/></clipPath><clipPath class="axesclip" id="clip655201y"><rect x="0" y="90" width="900" height="383"/></clipPath><clipPath class="axesclip" id="clip655201xy"><rect x="60" y="90" width="780" height="383"/></clipPath></g><g class="gradients"/><g class="patterns"/></defs><g class="bglayer"/><g class="layer-below"><g class="imagelayer"/><g class="shapelayer"/></g><g class="cartesianlayer"><g class="subplot xy"><g class="layer-subplot"><g class="shapelayer"/><g class="imagelayer"/></g><g class="minor-gridlayer"><g class="x"/><g class="y"/></g><g class="gridlayer"><g class="x"/><g class="y"><path class="ygrid crisp" transform="translate(0,431.18)" d="M60,0h780" style="stroke: rgb(229, 228, 227); stroke-opacity: 1; stroke-width: 1px;"/><path class="ygrid crisp" transform="translate(0,389.36)" d="M60,0h780" style="stroke: rgb(229, 228, 227); stroke-opacity: 1; stroke-width: 1px;"/><path class="ygrid crisp" transform="translate(0,347.53)" d="M60,0h780" style="stroke: rgb(229, 228, 227); stroke-opacity: 1; stroke-width: 1px;"/><path class="ygrid crisp" transform="translate(0,305.71000000000004)" d="M60,0h780" style="stroke: rgb(229, 228, 227); stroke-opacity: 1; stroke-width: 1px;"/><path class="ygrid crisp" transform="translate(0,263.89)" d="M60,0h780" style="stroke: rgb(229, 228, 227); stroke-opacity: 1; stroke-width: 1px;"/><path class="ygrid crisp" transform="translate(0,222.07)" d="M60,0h780" style="stroke: rgb(229, 228, 227); stroke-opacity: 1; stroke-width: 1px;"/><path class="ygrid crisp" transform="translate(0,180.25)" d="M60,0h780" style="stroke: rgb(229, 228, 227); stroke-opacity: 1; stroke-width: 1px;"/><path class="ygrid crisp" transform="translate(0,138.43)" d="M60,0h780" style="stroke: rgb(229, 228, 227); stroke-opacity: 1; stroke-width: 1px;"/><path class="ygrid crisp" transform="translate(0,96.6)" d="M60,0h780" style="stroke: rgb(229, 228, 227); stroke-opacity: 1; stroke-width: 1px;"/></g></g><g class="zerolinelayer"/><g class="layer-between"><g class="shapelayer"/><g class="imagelayer"/></g><path class="xlines-below"/><path class="ylines-below"/><g class="overlines-below"/><g class="xaxislayer-below"/><g class="yaxislayer-below"/><g class="overaxes-below"/><g class="overplot"><g class="xy" transform="translate(60,90)" clip-path="url(#clip655201xyplot)"><g class="scatterlayer mlayer"><g class="trace scatter trace3ab883" style="stroke-miterlimit: 2;"><g class="fills"><g><path class="js-fill" d="M780,383L0,383L0,374.64L111.43,366.27L222.86,349.54L334.29,324.45L445.71,307.72L557.14,316.09L668.57,290.99L780,265.9" style="fill: rgb(255, 107, 53); fill-opacity: 0.75; stroke-width: 0;"/></g><g><path class="js-fill" d="M0,353.72L111.43,328.63L222.86,290.99L334.29,249.17L445.71,219.89L557.14,224.08L668.57,190.62L780,161.34L780,265.9L668.57,290.99L557.14,316.09L445.71,307.72L334.29,324.45L222.86,349.54L111.43,366.27L0,374.64Z" style="fill: rgb(0, 121, 125); fill-opacity: 0.75; stroke-width: 0;"/></g></g><g class="errorbars"/><g class="lines"><path class="js-line" d="M0,374.64L111.43,366.27L222.86,349.54L334.29,324.45L445.71,307.72L557.14,316.09L668.57,290.99L780,265.9" style="vector-effect: none; fill: none; stroke: rgb(255, 107, 53); stroke-opacity: 1; stroke-width: 0px; opacity: 1;"/></g><g class="points"/><g class="text"/></g><g class="trace scatter trace7a308a" style="stroke-miterlimit: 2;"><g class="fills"><g><path class="js-fill" d="M0,341.18L111.43,303.54L222.86,257.53L445.71,182.26L557.14,178.07L668.57,132.07L780,94.43L780,161.34L668.57,190.62L557.14,224.08L445.71,219.89L334.29,249.17L222.86,290.99L111.43,328.63L0,353.72Z" style="fill: rgb(199, 70, 1); fill-opacity: 0.75; stroke-width: 0;"/></g></g><g class="errorbars"/><g class="lines"><path class="js-line" d="M0,353.72L111.43,328.63L222.86,290.99L334.29,249.17L445.71,219.89L557.14,224.08L668.57,190.62L780,161.34" style="vector-effect: none; fill: none; stroke: rgb(0, 121, 125); stroke-opacity: 1; stroke-width: 0px; opacity: 1;"/></g><g class="points"/><g class="text"/></g><g class="trace scatter trace82ed0c" style="stroke-miterlimit: 2;"><g class="fills"><g><path class="js-fill" d="M0,337L111.43,290.99L222.86,228.26L334.29,186.44L445.71,152.98L557.14,152.98L668.57,102.79L780,60.97L780,94.43L668.57,132.07L557.14,178.07L445.71,182.26L222.86,257.53L111.43,303.54L0,341.18Z" style="fill: rgb(6, 166, 171); fill-opacity: 0.75; stroke-width: 0;"/></g></g><g class="errorbars"/><g class="lines"><path class="js-line" d="M0,341.18L111.43,303.54L222.86,257.53L445.71,182.26L557.14,178.07L668.57,132.07L780,94.43" style="vector-effect: none; fill: none; stroke: rgb(199, 70, 1); stroke-opacity: 1; stroke-width: 0px; opacity: 1;"/></g><g class="points"/><g class="text"/></g><g class="trace scatter trace8ee0f4" style="stroke-miterlimit: 2;"><g class="fills"><g><path class="js-fill" d="M0,278.45L111.43,236.62L222.86,178.07L334.29,140.43L445.71,106.98L557.14,106.98L668.57,56.79L780,19.15L780,60.97L668.57,102.79L557.14,152.98L445.71,152.98L334.29,186.44L222.86,228.26L111.43,290.99L0,337Z" style="fill: rgb(255, 145, 77); fill-opacity: 0.75; stroke-width: 0;"/></g></g><g class="errorbars"/><g class="lines"><path class="js-line" d="M0,337L111.43,290.99L222.86,228.26L334.29,186.44L445.71,152.98L557.14,152.98L668.57,102.79L780,60.97" style="vector-effect: none; fill: none; stroke: rgb(6, 166, 171); stroke-opacity: 1; stroke-width: 0px; opacity: 1;"/></g><g class="points"/><g class="text"/></g><g class="trace scatter trace7db129" style="stroke-miterlimit: 2;"><g class="fills"/><g class="errorbars"/><g class="lines"><path class="js-line" d="M0,278.45L111.43,236.62L222.86,178.07L334.29,140.43L445.71,106.98L557.14,106.98L668.57,56.79L780,19.15" style="vector-effect: none; fill: none; stroke: rgb(255, 145, 77); stroke-opacity: 1; stroke-width: 0px; opacity: 1;"/></g><g class="points"/><g class="text"/></g></g></g></g><g class="zerolinelayer-above"/><path class="xlines-above crisp" d="M60,473.5H840" style="fill: none; stroke-width: 1px; stroke: rgb(217, 214, 213); stroke-opacity: 1;"/><path class="ylines-above crisp" d="M0,0" style="fill: none;"/><g class="overlines-above"/><g class="xaxislayer-above"><g class="xtick"><text text-anchor="middle" x="0" y="486" transform="translate(60,0)" style="font-family: Montserrat, Roboto, sans-serif; font-size: 10px; fill: rgb(122, 116, 112); fill-opacity: 1; white-space: pre;">2010</text></g><g class="xtick"><text text-anchor="middle" x="0" y="486" style="font-family: Montserrat, Roboto, sans-serif; font-size: 10px; fill: rgb(122, 116, 112); fill-opacity: 1; white-space: pre;" transform="translate(171.43,0)">2012</text></g><g class="xtick"><text text-anchor="middle" x="0" y="486" style="font-family: Montserrat, Roboto, sans-serif; font-size: 10px; fill: rgb(122, 116, 112); fill-opacity: 1; white-space: pre;" transform="translate(282.86,0)">2014</text></g><g class="xtick"><text text-anchor="middle" x="0" y="486" style="font-family: Montserrat, Roboto, sans-serif; font-size: 10px; fill: rgb(122, 116, 112); fill-opacity: 1; white-space: pre;" transform="translate(394.29,0)">2016</text></g><g class="xtick"><text text-anchor="middle" x="0" y="486" style="font-family: Montserrat, Roboto, sans-serif; font-size: 10px; fill: rgb(122, 116, 112); fill-opacity: 1; white-space: pre;" transform="translate(505.71,0)">2018</text></g><g class="xtick"><text text-anchor="middle" x="0" y="486" style="font-family: Montserrat, Roboto, sans-serif; font-size: 10px; fill: rgb(122, 116, 112); fill-opacity: 1; white-space: pre;" transform="translate(617.14,0)">2020</text></g><g class="xtick"><text text-anchor="middle" x="0" y="486" style="font-family: Montserrat, Roboto, sans-serif; font-size: 10px; fill: rgb(122, 116, 112); fill-opacity: 1; white-space: pre;" transform="translate(728.57,0)">2022</text></g><g class="xtick"><text text-anchor="middle" x="0" y="486" style="font-family: Montserrat, Roboto, sans-serif; font-size: 10px; fill: rgb(122, 116, 112); fill-opacity: 1; white-space: pre;" transform="translate(840,0)">2024</text></g></g><g class="yaxislayer-above"><g class="ytick"><text text-anchor="end" x="59" y="3.5" transform="translate(0,473)" style="font-family: Montserrat, Roboto, sans-serif; font-size: 10px; fill: rgb(122, 116, 112); fill-opacity: 1; white-space: pre;">0</text></g><g class="ytick"><text text-anchor="end" x="59" y="3.5" style="font-family: Montserrat, Roboto, sans-serif; font-size: 10px; fill: rgb(122, 116, 112); fill-opacity: 1; white-space: pre;" transform="translate(0,431.18)">10</text></g><g class="ytick"><text text-anchor="end" x="59" y="3.5" style="font-family: Montserrat, Roboto, sans-serif; font-size: 10px; fill: rgb(122, 116, 112); fill-opacity: 1; white-space: pre;" transform="translate(0,389.36)">20</text></g><g class="ytick"><text text-anchor="end" x="59" y="3.5" style="font-family: Montserrat, Roboto, sans-serif; font-size: 10px; fill: rgb(122, 116, 112); fill-opacity: 1; white-space: pre;" transform="translate(0,347.53)">30</text></g><g class="ytick"><text text-anchor="end" x="59" y="3.5" style="font-family: Montserrat, Roboto, sans-serif; font-size: 10px; fill: rgb(122, 116, 112); fill-opacity: 1; white-space: pre;" transform="translate(0,305.71000000000004)">40</text></g><g class="ytick"><text text-anchor="end" x="59" y="3.5" style="font-family: Montserrat, Roboto, sans-serif; font-size: 10px; fill: rgb(122, 116, 112); fill-opacity: 1; white-space: pre;" transform="translate(0,263.89)">50</text></g><g class="ytick"><text text-anchor="end" x="59" y="3.5" style="font-family: Montserrat, Roboto, sans-serif; font-size: 10px; fill: rgb(122, 116, 112); fill-opacity: 1; white-space: pre;" transform="translate(0,222.07)">60</text></g><g class="ytick"><text text-anchor="end" x="59" y="3.5" style="font-family: Montserrat, Roboto, sans-serif; font-size: 10px; fill: rgb(122, 116, 112); fill-opacity: 1; white-space: pre;" transform="translate(0,180.25)">70</text></g><g class="ytick"><text text-anchor="end" x="59" y="3.5" style="font-family: Montserrat, Roboto, sans-serif; font-size: 10px; fill: rgb(122, 116, 112); fill-opacity: 1; white-space: pre;" transform="translate(0,138.43)">80</text></g><g class="ytick"><text text-anchor="end" x="59" y="3.5" style="font-family: Montserrat, Roboto, sans-serif; font-size: 10px; fill: rgb(122, 116, 112); fill-opacity: 1; white-space: pre;" transform="translate(0,96.6)">90</text></g></g><g class="overaxes-above"/></g></g><g class="polarlayer"/><g class="smithlayer"/><g class="ternarylayer"/><g class="geolayer"/><g class="funnelarealayer"/><g class="pielayer"/><g class="iciclelayer"/><g class="treemaplayer"/><g class="sunburstlayer"/><g class="glimages"/><defs id="topdefs-655201"><g class="clips"/><clipPath id="legend655201"><rect width="465" height="29" x="0" y="0"/></clipPath></defs><g class="layer-above"><g class="imagelayer"/><g class="shapelayer"/></g><g class="infolayer"><g class="legend" pointer-events="all" transform="translate(217.5,518.96)"><rect class="bg" shape-rendering="crispEdges" style="stroke: rgb(68, 68, 68); stroke-opacity: 1; fill: rgb(0, 0, 0); fill-opacity: 0; stroke-width: 0px;" width="465" height="29" x="0" y="0"/><g class="scrollbox" transform="" clip-path="url(#legend655201)"><g class="groups"><g class="traces" transform="translate(0,14.5)" style="opacity: 1;"><text class="legendtext" text-anchor="start" x="40" y="3.9" style="font-family: Montserrat, Roboto, sans-serif; font-size: 10px; fill: rgb(82, 77, 75); fill-opacity: 1; white-space: pre;">Other</text><g class="layers"><g class="legendfill"><path class="js-fill" d="M5,-2h30v6h-30z" style="stroke-width: 0; fill: rgb(255, 145, 77); fill-opacity: 0.75;"/></g><g class="legendlines"><path class="js-line" d="M5,-2h30" style="fill: none; stroke: rgb(255, 145, 77); stroke-opacity: 1; stroke-width: 0px;"/></g><g class="legendsymbols"><g class="legendpoints"/></g></g><rect class="legendtoggle" x="0" y="-9.5" width="67.515625" height="19" style="fill: rgb(0, 0, 0); fill-opacity: 0;"/></g><g class="traces" transform="translate(70.015625,14.5)" style="opacity: 1;"><text class="legendtext" text-anchor="start" x="40" y="3.9" style="font-family: Montserrat, Roboto, sans-serif; font-size: 10px; fill: rgb(82, 77, 75); fill-opacity: 1; white-space: pre;">Eagle Ford</text><g class="layers"><g class="legendfill"><path class="js-fill" d="M5,-2h30v6h-30z" style="stroke-width: 0; fill: rgb(6, 166, 171); fill-opacity: 0.75;"/></g><g class="legendlines"><path class="js-line" d="M5,-2h30" style="fill: none; stroke: rgb(6, 166, 171); stroke-opacity: 1; stroke-width: 0px;"/></g><g class="legendsymbols"><g class="legendpoints"/></g></g><rect class="legendtoggle" x="0" y="-9.5" width="91.421875" height="19" style="fill: rgb(0, 0, 0); fill-opacity: 0;"/></g><g class="traces" transform="translate(163.9375,14.5)" style="opacity: 1;"><text class="legendtext" text-anchor="start" x="40" y="3.9" style="font-family: Montserrat, Roboto, sans-serif; font-size: 10px; fill: rgb(82, 77, 75); fill-opacity: 1; white-space: pre;">Haynesville</text><g class="layers"><g class="legendfill"><path class="js-fill" d="M5,-2h30v6h-30z" style="stroke-width: 0; fill: rgb(199, 70, 1); fill-opacity: 0.75;"/></g><g class="legendlines"><path class="js-line" d="M5,-2h30" style="fill: none; stroke: rgb(199, 70, 1); stroke-opacity: 1; stroke-width: 0px;"/></g><g class="legendsymbols"><g class="legendpoints"/></g></g><rect class="legendtoggle" x="0" y="-9.5" width="93.640625" height="19" style="fill: rgb(0, 0, 0); fill-opacity: 0;"/></g><g class="traces" transform="translate(260.078125,14.5)" style="opacity: 1;"><text class="legendtext" text-anchor="start" x="40" y="3.9" style="font-family: Montserrat, Roboto, sans-serif; font-size: 10px; fill: rgb(82, 77, 75); fill-opacity: 1; white-space: pre;">Appalachia</text><g class="layers"><g class="legendfill"><path class="js-fill" d="M5,-2h30v6h-30z" style="stroke-width: 0; fill: rgb(0, 121, 125); fill-opacity: 0.75;"/></g><g class="legendlines"><path class="js-line" d="M5,-2h30" style="fill: none; stroke: rgb(0, 121, 125); stroke-opacity: 1; stroke-width: 0px;"/></g><g class="legendsymbols"><g class="legendpoints"/></g></g><rect class="legendtoggle" x="0" y="-9.5" width="91.984375" height="19" style="fill: rgb(0, 0, 0); fill-opacity: 0;"/></g><g class="traces" transform="translate(354.5625,14.5)" style="opacity: 1;"><text class="legendtext" text-anchor="start" x="40" y="3.9" style="font-family: Montserrat, Roboto, sans-serif; font-size: 10px; fill: rgb(82, 77, 75); fill-opacity: 1; white-space: pre;">Permian Basin</text><g class="layers"><g class="legendfill"><path class="js-fill" d="M5,-2h30v6h-30z" style="stroke-width: 0; fill: rgb(255, 107, 53); fill-opacity: 0.75;"/></g><g class="legendlines"><path class="js-line" d="M5,-2h30" style="fill: none; stroke: rgb(255, 107, 53); stroke-opacity: 1; stroke-width: 0px;"/></g><g class="legendsymbols"><g class="legendpoints"/></g></g><rect class="legendtoggle" x="0" y="-9.5" width="107.53125" height="19" style="fill: rgb(0, 0, 0); fill-opacity: 0;"/></g></g></g><rect class="scrollbar" rx="20" ry="3" width="0" height="0" style="fill: rgb(128, 139, 164); fill-opacity: 1;" x="0" y="0"/></g><g class="g-gtitle"/><g class="g-xtitle"/><g class="g-ytitle"/><g class="annotation" data-index="0" style="opacity: 1;"><g class="annotation-text-g" transform="rotate(0,305.5,17.499999999999986)"><g class="cursor-pointer" transform="translate(60,3)"><rect class="bg" x="0.5" y="0.5" width="490" height="28" style="stroke-width: 1px; stroke: rgb(0, 0, 0); stroke-opacity: 0; fill: rgb(0, 0, 0); fill-opacity: 0;"/><text class="annotation-text" text-anchor="middle" x="245.296875" y="22" style="font-family: Montserrat, Roboto, sans-serif; font-size: 22px; fill: rgb(31, 28, 27); fill-opacity: 1; white-space: pre;"><tspan style="font-weight:bold">US Marketable Natural Gas Production by Play</tspan></text></g></g></g><g class="annotation" data-index="1" style="opacity: 1;"><g class="annotation-text-g" transform="rotate(0,77,52.5)"><g class="cursor-pointer" transform="translate(60,43)"><rect class="bg" x="0.5" y="0.5" width="33" height="18" style="stroke-width: 1px; stroke: rgb(0, 0, 0); stroke-opacity: 0; fill: rgb(0, 0, 0); fill-opacity: 0;"/><text class="annotation-text" text-anchor="middle" x="16.8125" y="14" style="font-family: Montserrat, Roboto, sans-serif; font-size: 13px; fill: rgb(82, 77, 75); fill-opacity: 1; white-space: pre;">Bcf/d</text></g></g></g><g class="annotation" data-index="2" style="opacity: 1;"><g class="annotation-text-g" transform="rotate(0,173.5,506)"><g class="cursor-pointer" transform="translate(60,499)"><rect class="bg" x="0.5" y="0.5" width="226" height="13" style="stroke-width: 1px; stroke: rgb(0, 0, 0); stroke-opacity: 0; fill: rgb(0, 0, 0); fill-opacity: 0;"/><text class="annotation-text" text-anchor="middle" x="113.4765625" y="10" style="font-family: Montserrat, Roboto, sans-serif; font-size: 9px; fill: rgb(158, 150, 145); fill-opacity: 1; white-space: pre;"><tspan style="font-style:italic">Source: EIA; Natural Gas Intelligence; Wood Mackenzie</tspan></text></g></g></g></g></svg>