<svg class="main-svg" xmlns="http://www.w3.org/2000/svg" xmlns:xlink="http://www.w3.org/1999/xlink" width="900" height="560" style="" viewBox="0 0 900 560"><rect x="0" y="0" width="900" height="560" style="fill: rgb(255, 250, 247); fill-opacity: 1;"/><defs id="defs-5dd702"><g class="clips"><clipPath id="clip5dd702xyplot" class="plotclip"><rect width="780" height="365"/></clipPath><clipPath class="axesclip" id="clip5dd702x"><rect x="60" y="0" width="780" height="560"/></clipPath><clipPath class="axesclip" id="clip5dd702y"><rect x="0" y="110" width="900" height="365"/></clipPath><clipPath class="axesclip" id="clip5dd702xy"><rect x="60" y="110" width="780" height="365"/></clipPath></g><g class="gradients"/><g class="patterns"/></defs><g class="bglayer"/><g class="layer-below"><g class="imagelayer"/><g class="shapelayer"/></g><g class="cartesianlayer"><g class="subplot xy"><g class="layer-subplot"><g class="shapelayer"/><g class="imagelayer"/></g><g class="minor-gridlayer"><g class="x"/><g class="y"/></g><g class="gridlayer"><g class="x"/><g class="y"><path class="ygrid crisp" transform="translate(0,435.14)" d="M60,0h780" style="stroke: rgb(229, 228, 227); stroke-opacity: 1; stroke-width: 1px;"/><path class="ygrid crisp" transform="translate(0,395.29)" d="M60,0h780" style="stroke: rgb(229, 228, 227); stroke-opacity: 1; stroke-width: 1px;"/><path class="ygrid crisp" transform="translate(0,355.43)" d="M60,0h780" style="stroke: rgb(229, 228, 227); stroke-opacity: 1; stroke-width: 1px;"/><path class="ygrid crisp" transform="translate(0,315.57)" d="M60,0h780" style="stroke: rgb(229, 228, 227); stroke-opacity: 1; stroke-width: 1px;"/><path class="ygrid crisp" transform="translate(0,275.72)" d="M60,0h780" style="stroke: rgb(229, 228, 227); stroke-opacity: 1; stroke-width: 1px;"/><path class="ygrid crisp" transform="translate(0,235.86)" d="M60,0h780" style="stroke: rgb(229, 228, 227); stroke-opacity: 1; stroke-width: 1px;"/><path class="ygrid crisp" transform="translate(0,196.01)" d="M60,0h780" style="stroke: rgb(229, 228, 227); stroke-opacity: 1; stroke-width: 1px;"/><path class="ygrid crisp" transform="translate(0,156.15)" d="M60,0h780" style="stroke: rgb(229, 228, 227); stroke-opacity: 1; stroke-width: 1px;"/><path class="ygrid crisp" transform="translate(0,116.29)" d="M60,0h780" style="stroke: rgb(229, 228, 227); stroke-opacity: 1; stroke-width: 1px;"/></g></g><g class="zerolinelayer"/><g class="layer-between"><g class="shapelayer"/><g class="imagelayer"/></g><path class="xlines-below"/><path class="ylines-below"/><g class="overlines-below"/><g class="xaxislayer-below"/><g class="yaxislayer-below"/><g class="overaxes-below"/><g class="overplot"><g class="xy" transform="translate(60,110)" clip-path="url(#clip5dd702xyplot)"><g class="scatterlayer mlayer"><g class="trace scatter trace83058b" style="stroke-miterlimit: 2;"><g class="fills"><g><path class="js-fill" d="M780,365L0,365L0,357.03L111.43,349.06L222.86,333.11L334.29,309.2L445.71,293.26L557.14,301.23L668.57,277.32L780,253.4" style="fill: rgb(255, 107, 53); fill-opacity: 0.75; stroke-width: 0;"/></g><g><path class="js-fill" d="M0,337.1L111.43,313.19L222.86,277.32L334.29,237.46L445.71,209.56L557.14,213.55L668.57,181.66L780,153.76L780,253.4L668.57,277.32L557.14,301.23L445.71,293.26L334.29,309.2L222.86,333.11L111.43,349.06L0,357.03Z" style="fill: rgb(0, 121, 125); fill-opacity: 0.75; stroke-width: 0;"/></g></g><g class="errorbars"/><g class="lines"><path class="js-line" d="M0,357.03L111.43,349.06L222.86,333.11L334.29,309.2L445.71,293.26L557.14,301.23L668.57,277.32L780,253.4" style="vector-effect: none; fill: none; stroke: rgb(255, 107, 53); stroke-opacity: 1; stroke-width: 0px; opacity: 1;"/></g><g class="points"/><g class="text"/></g><g class="trace scatter trace1c574e" style="stroke-miterlimit: 2;"><g class="fills"><g><path class="js-fill" d="M0,325.14L111.43,289.27L222.86,245.43L445.71,173.69L557.14,169.7L668.57,125.86L780,89.99L780,153.76L668.57,181.66L557.14,213.55L445.71,209.56L334.29,237.46L222.86,277.32L111.43,313.19L0,337.1Z" style="fill: rgb(199, 70, 1); fill-opacity: 0.75; stroke-width: 0;"/></g></g><g class="errorbars"/><g class="lines"><path class="js-line" d="M0,337.1L111.43,313.19L222.86,277.32L334.29,237.46L445.71,209.56L557.14,213.55L668.57,181.66L780,153.76" style="vector-effect: none; fill: none; stroke: rgb(0, 121, 125); stroke-opacity: 1; stroke-width: 0px; opacity: 1;"/></g><g class="points"/><g class="text"/></g><g class="trace scatter tracebd3d95" style="stroke-miterlimit: 2;"><g class="fills"><g><path class="js-fill" d="M0,321.16L111.43,277.32L222.86,217.53L334.29,177.68L445.71,145.79L557.14,145.79L668.57,97.96L780,58.11L780,89.99L668.57,125.86L557.14,169.7L445.71,173.69L222.86,245.43L111.43,289.27L0,325.14Z" style="fill: rgb(6, 166, 171); fill-opacity: 0.75; stroke-width: 0;"/></g></g><g class="errorbars"/><g class="lines"><path class="js-line" d="M0,325.14L111.43,289.27L222.86,245.43L445.71,173.69L557.14,169.7L668.57,125.86L780,89.99" style="vector-effect: none; fill: none; stroke: rgb(199, 70, 1); stroke-opacity: 1; stroke-width: 0px; opacity: 1;"/></g><g class="points"/><g class="text"/></g><g class="trace scatter tracea5678f" style="stroke-miterlimit: 2;"><g class="fills"><g><path class="js-fill" d="M0,265.36L111.43,225.5L222.86,169.7L334.29,133.83L445.71,101.95L557.14,101.95L668.57,54.12L780,18.25L780,58.11L668.57,97.96L557.14,145.79L445.71,145.79L334.29,177.68L222.86,217.53L111.43,277.32L0,321.16Z" style="fill: rgb(255, 145, 77); fill-opacity: 0.75; stroke-width: 0;"/></g></g><g class="errorbars"/><g class="lines"><path class="js-line" d="M0,321.16L111.43,277.32L222.86,217.53L334.29,177.68L445.71,145.79L557.14,145.79L668.57,97.96L780,58.11" style="vector-effect: none; fill: none; stroke: rgb(6, 166, 171); stroke-opacity: 1; stroke-width: 0px; opacity: 1;"/></g><g class="points"/><g class="text"/></g><g class="trace scatter trace9c2a5a" style="stroke-miterlimit: 2;"><g class="fills"/><g class="errorbars"/><g class="lines"><path class="js-line" d="M0,265.36L111.43,225.5L222.86,169.7L334.29,133.83L445.71,101.95L557.14,101.95L668.57,54.12L780,18.25" style="vector-effect: none; fill: none; stroke: rgb(255, 145, 77); stroke-opacity: 1; stroke-width: 0px; opacity: 1;"/></g><g class="points"/><g class="text"/></g></g></g></g><g class="zerolinelayer-above"/><path class="xlines-above crisp" d="M60,475.5H840" style="fill: none; stroke-width: 1px; stroke: rgb(217, 214, 213); stroke-opacity: 1;"/><path class="ylines-above crisp" d="M0,0" style="fill: none;"/><g class="overlines-above"/><g class="xaxislayer-above"><g class="xtick"><text text-anchor="middle" x="0" y="488" transform="translate(60,0)" style="font-family: Montserrat, Roboto, sans-serif; font-size: 10px; fill: rgb(122, 116, 112); fill-opacity: 1; white-space: pre;">2010</text></g><g class="xtick"><text text-anchor="middle" x="0" y="488" style="font-family: Montserrat, Roboto, sans-serif; font-size: 10px; fill: rgb(122, 116, 112); fill-opacity: 1; white-space: pre;" transform="translate(171.43,0)">2012</text></g><g class="xtick"><text text-anchor="middle" x="0" y="488" style="font-family: Montserrat, Roboto, sans-serif; font-size: 10px; fill: rgb(122, 116, 112); fill-opacity: 1; white-space: pre;" transform="translate(282.86,0)">2014</text></g><g class="xtick"><text text-anchor="middle" x="0" y="488" style="font-family: Montserrat, Roboto, sans-serif; font-size: 10px; fill: rgb(122, 116, 112); fill-opacity: 1; white-space: pre;" transform="translate(394.29,0)">2016</text></g><g class="xtick"><text text-anchor="middle" x="0" y="488" style="font-family: Montserrat, Roboto, sans-serif; font-size: 10px; fill: rgb(122, 116, 112); fill-opacity: 1; white-space: pre;" transform="translate(505.71,0)">2018</text></g><g class="xtick"><text text-anchor="middle" x="0" y="488" style="font-family: Montserrat, Roboto, sans-serif; font-size: 10px; fill: rgb(122, 116, 112); fill-opacity: 1; white-space: pre;" transform="translate(617.14,0)">2020</text></g><g class="xtick"><text text-anchor="middle" x="0" y="488" style="font-family: Montserrat, Roboto, sans-serif; font-size: 10px; fill: rgb(122, 116, 112); fill-opacity: 1; white-space: pre;" transform="translate(728.57,0)">2022</text></g><g class="xtick"><text text-anchor="middle" x="0" y="488" style="font-family: Montserrat, Roboto, sans-serif; font-size: 10px; fill: rgb(122, 116, 112); fill-opacity: 1; white-space: pre;" transform="translate(840,0)">2024</text></g></g><g class="yaxislayer-above"><g class="ytick"><text text-anchor="end" x="59" y="3.5" transform="translate(0,475)" style="font-family: Montserrat, Roboto, sans-serif; font-size: 10px; fill: rgb(122, 116, 112); fill-opacity: 1; white-space: pre;">0</text></g><g class="ytick"><text text-anchor="end" x="59" y="3.5" style="font-family: Montserrat, Roboto, sans-serif; font-size: 10px; fill: rgb(122, 116, 112); fill-opacity: 1; white-space: pre;" transform="translate(0,435.14)">10</text></g><g class="ytick"><text text-anchor="end" x="59" y="3.5" style="font-family: Montserrat, Roboto, sans-serif; font-size: 10px; fill: rgb(122, 116, 112); fill-opacity: 1; white-space: pre;" transform="translate(0,395.29)">20</text></g><g class="ytick"><text text-anchor="end" x="59" y="3.5" style="font-family: Montserrat, Roboto, sans-serif; font-size: 10px; fill: rgb(122, 116, 112); fill-opacity: 1; white-space: pre;" transform="translate(0,355.43)">30</text></g><g class="ytick"><text text-anchor="end" x="59" y="3.5" style="font-family: Montserrat, Roboto, sans-serif; font-size: 10px; fill: rgb(122, 116, 112); fill-opacity: 1; white-space: pre;" transform="translate(0,315.57)">40</text></g><g class="ytick"><text text-anchor="end" x="59" y="3.5" style="font-family: Montserrat, Roboto, sans-serif; font-size: 10px; fill: rgb(122, 116, 112); fill-opacity: 1; white-space: pre;" transform="translate(0,275.72)">50</text></g><g class="ytick"><text text-anchor="end" x="59" y="3.5" style="font-family: Montserrat, Roboto, sans-serif; font-size: 10px; fill: rgb(122, 116, 112); fill-opacity: 1; white-space: pre;" transform="translate(0,235.86)">60</text></g><g class="ytick"><text text-anchor="end" x="59" y="3.5" style="font-family: Montserrat, Roboto, sans-serif; font-size: 10px; fill: rgb(122, 116, 112); fill-opacity: 1; white-space: pre;" transform="translate(0,196.01)">70</text></g><g class="ytick"><text text-anchor="end" x="59" y="3.5" style="font-family: Montserrat, Roboto, sans-serif; font-size: 10px; fill: rgb(122, 116, 112); fill-opacity: 1; white-space: pre;" transform="translate(0,156.15)">80</text></g><g class="ytick"><text text-anchor="end" x="59" y="3.5" style="font-family: Montserrat, Roboto, sans-serif; font-size: 10px; fill: rgb(122, 116, 112); fill-opacity: 1; white-space: pre;" transform="translate(0,116.29)">90</text></g></g><g class="overaxes-above"/></g></g><g class="polarlayer"/><g class="smithlayer"/><g class="ternarylayer"/><g class="geolayer"/><g class="funnelarealayer"/><g class="pielayer"/><g class="iciclelayer"/><g class="treemaplayer"/><g class="sunburstlayer"/><g class="glimages"/><defs id="topdefs-5dd702"><g class="clips"/><clipPath id="legend5dd702"><rect width="465" height="29" x="0" y="0"/></clipPath></defs><g class="layer-above"><g class="imagelayer"/><g class="shapelayer"/></g><g class="infolayer"><g class="legend" pointer-events="all" transform="translate(217.5,518.8)"><rect class="bg" shape-rendering="crispEdges" style="stroke: rgb(68, 68, 68); stroke-opacity: 1; fill: rgb(0, 0, 0); fill-opacity: 0; stroke-width: 0px;" width="465" height="29" x="0" y="0"/><g class="scrollbox" transform="" clip-path="url(#legend5dd702)"><g class="groups"><g class="traces" transform="translate(0,14.5)" style="opacity: 1;"><text class="legendtext" text-anchor="start" x="40" y="3.9" style="font-family: Montserrat, Roboto, sans-serif; font-size: 10px; fill: rgb(82, 77, 75); fill-opacity: 1; white-space: pre;">Other</text><g class="layers"><g class="legendfill"><path class="js-fill" d="M5,-2h30v6h-30z" style="stroke-width: 0; fill: rgb(255, 145, 77); fill-opacity: 0.75;"/></g><g class="legendlines"><path class="js-line" d="M5,-2h30" style="fill: none; stroke: rgb(255, 145, 77); stroke-opacity: 1; stroke-width: 0px;"/></g><g class="legendsymbols"><g class="legendpoints"/></g></g><rect class="legendtoggle" x="0" y="-9.5" width="67.515625" height="19" style="fill: rgb(0, 0, 0); fill-opacity: 0;"/></g><g class="traces" transform="translate(70.015625,14.5)" style="opacity: 1;"><text class="legendtext" text-anchor="start" x="40" y="3.9" style="font-family: Montserrat, Roboto, sans-serif; font-size: 10px; fill: rgb(82, 77, 75); fill-opacity: 1; white-space: pre;">Eagle Ford</text><g class="layers"><g class="legendfill"><path class="js-fill" d="M5,-2h30v6h-30z" style="stroke-width: 0; fill: rgb(6, 166, 171); fill-opacity: 0.75;"/></g><g class="legendlines"><path class="js-line" d="M5,-2h30" style="fill: none; stroke: rgb(6, 166, 171); stroke-opacity: 1; stroke-width: 0px;"/></g><g class="legendsymbols"><g class="legendpoints"/></g></g><rect class="legendtoggle" x="0" y="-9.5" width="91.421875" height="19" style="fill: rgb(0, 0, 0); fill-opacity: 0;"/></g><g class="traces" transform="translate(163.9375,14.5)" style="opacity: 1;"><text class="legendtext" text-anchor="start" x="40" y="3.9" style="font-family: Montserrat, Roboto, sans-serif; font-size: 10px; fill: rgb(82, 77, 75); fill-opacity: 1; white-space: pre;">Haynesville</text><g class="layers"><g class="legendfill"><path class="js-fill" d="M5,-2h30v6h-30z" style="stroke-width: 0; fill: rgb(199, 70, 1); fill-opacity: 0.75;"/></g><g class="legendlines"><path class="js-line" d="M5,-2h30" style="fill: none; stroke: rgb(199, 70, 1); stroke-opacity: 1; stroke-width: 0px;"/></g><g class="legendsymbols"><g class="legendpoints"/></g></g><rect class="legendtoggle" x="0" y="-9.5" width="93.640625" height="19" style="fill: rgb(0, 0, 0); fill-opacity: 0;"/></g><g class="traces" transform="translate(260.078125,14.5)" style="opacity: 1;"><text class="legendtext" text-anchor="start" x="40" y="3.9" style="font-family: Montserrat, Roboto, sans-serif; font-size: 10px; fill: rgb(82, 77, 75); fill-opacity: 1; white-space: pre;">Appalachia</text><g class="layers"><g class="legendfill"><path class="js-fill" d="M5,-2h30v6h-30z" style="stroke-width: 0; fill: rgb(0, 121, 125); fill-opacity: 0.75;"/></g><g class="legendlines"><path class="js-line" d="M5,-2h30" style="fill: none; stroke: rgb(0, 121, 125); stroke-opacity: 1; stroke-width: 0px;"/></g><g class="legendsymbols"><g class="legendpoints"/></g></g><rect class="legendtoggle" x="0" y="-9.5" width="91.984375" height="19" style="fill: rgb(0, 0, 0); fill-opacity: 0;"/></g><g class="traces" transform="translate(354.5625,14.5)" style="opacity: 1;"><text class="legendtext" text-anchor="start" x="40" y="3.9" style="font-family: Montserrat, Roboto, sans-serif; font-size: 10px; fill: rgb(82, 77, 75); fill-opacity: 1; white-space: pre;">Permian Basin</text><g class="layers"><g class="legendfill"><path class="js-fill" d="M5,-2h30v6h-30z" style="stroke-width: 0; fill: rgb(255, 107, 53); fill-opacity: 0.75;"/></g><g class="legendlines"><path class="js-line" d="M5,-2h30" style="fill: none; stroke: rgb(255, 107, 53); stroke-opacity: 1; stroke-width: 0px;"/></g><g class="legendsymbols"><g class="legendpoints"/></g></g><rect class="legendtoggle" x="0" y="-9.5" width="107.53125" height="19" style="fill: rgb(0, 0, 0); fill-opacity: 0;"/></g></g></g><rect class="scrollbar" rx="20" ry="3" width="0" height="0" style="fill: rgb(128, 139, 164); fill-opacity: 1;" x="0" y="0"/></g><g class="g-gtitle"/><g class="g-xtitle"/><g class="g-ytitle"/><g class="annotation" data-index="0" style="opacity: 1;"><g class="annotation-text-g" transform="rotate(0,305.5,33.499999999999986)"><g class="cursor-pointer" transform="translate(60,19)"><rect class="bg" x="0.5" y="0.5" width="490" height="28" style="stroke-width: 1px; stroke: rgb(0, 0, 0); stroke-opacity: 0; fill: rgb(0, 0, 0); fill-opacity: 0;"/><text class="annotation-text" text-anchor="middle" x="245.296875" y="22" style="font-family: Montserrat, Roboto, sans-serif; font-size: 22px; fill: rgb(31, 28, 27); fill-opacity: 1; white-space: pre;"><tspan style="font-weight:bold">US Marketable Natural Gas Production by Play</tspan></text></g></g></g><g class="annotation" data-index="1" style="opacity: 1;"><g class="annotation-text-g" transform="rotate(0,77,72.5)"><g class="cursor-pointer" transform="translate(60,63)"><rect class="bg" x="0.5" y="0.5" width="33" height="18" style="stroke-width: 1px; stroke: rgb(0, 0, 0); stroke-opacity: 0; fill: rgb(0, 0, 0); fill-opacity: 0;"/><text class="annotation-text" text-anchor="middle" x="16.8125" y="14" style="font-family: Montserrat, Roboto, sans-serif; font-size: 13px; fill: rgb(82, 77, 75); fill-opacity: 1; white-space: pre;">Bcf/d</text></g></g></g></g></svg>