<svg class="main-svg" xmlns="http://www.w3.org/2000/svg" xmlns:xlink="http://www.w3.org/1999/xlink" width="300" height="280" style="" viewBox="0 0 300 280"><rect x="0" y="0" width="300" height="280" style="fill: rgb(255, 250, 247); fill-opacity: 1;"/><defs id="defs-71a38b"><g class="clips"><clipPath id="clip71a38bxyplot" class="plotclip"><rect width="284" height="264"/></clipPath><clipPath class="axesclip" id="clip71a38bx"><rect x="8" y="0" width="284" height="280"/></clipPath><clipPath class="axesclip" id="clip71a38by"><rect x="0" y="8" width="300" height="264"/></clipPath><clipPath class="axesclip" id="clip71a38bxy"><rect x="8" y="8" width="284" height="264"/></clipPath></g><g class="gradients"/><g class="patterns"/></defs><g class="bglayer"><rect class="bg" x="8" y="8" width="284" height="264" style="fill: rgb(0, 0, 0); fill-opacity: 0; stroke-width: 0;"/></g><g class="layer-below"><g class="imagelayer"/><g class="shapelayer"><g class="shape-group" data-index="0"><path data-index="0" fill-rule="evenodd" d="M8,272H292V8H8Z" style="opacity: 1; stroke: rgb(217, 214, 213); stroke-opacity: 1; fill: rgb(255, 255, 255); fill-opacity: 1; stroke-width: 1.5px;"/></g><g class="shape-group" data-index="1"><path data-index="1" fill-rule="evenodd" d="M8,66.07999999999998H292V8H8Z" style="opacity: 1; stroke: rgb(0, 0, 0); stroke-opacity: 0; fill: rgb(255, 107, 53); fill-opacity: 1; stroke-width: 0px;"/></g></g></g><g class="cartesianlayer"><g class="subplot xy"><g class="layer-subplot"><g class="shapelayer"/><g class="imagelayer"/></g><g class="minor-gridlayer"><g class="x"/><g class="y"/></g><g class="gridlayer"><g class="x"/><g class="y"/></g><g class="zerolinelayer"/><g class="layer-between"><g class="shapelayer"/><g class="imagelayer"/></g><path class="xlines-below"/><path class="ylines-below"/><g class="overlines-below"/><g class="xaxislayer-below"/><g class="yaxislayer-below"/><g class="overaxes-below"/><g class="overplot"><g class="xy" transform="translate(8,8)" clip-path="url(#clip71a38bxyplot)"/></g><g class="zerolinelayer-above"/><path class="xlines-above crisp" d="M0,0" style="fill: none;"/><path class="ylines-above crisp" d="M0,0" style="fill: none;"/><g class="overlines-above"/><g class="xaxislayer-above"/><g class="yaxislayer-above"/><g class="overaxes-above"/></g></g><g class="polarlayer"/><g class="smithlayer"/><g class="ternarylayer"/><g class="geolayer"/><g class="funnelarealayer"/><g class="pielayer"/><g class="iciclelayer"/><g class="treemaplayer"/><g class="sunburstlayer"/><g class="glimages"/><defs id="topdefs-71a38b"><g class="clips"/></defs><g class="layer-above"><g class="imagelayer"/><g class="shapelayer"><g class="shape-group" data-index="2" clip-path="url(#clip71a38bxy)"><path data-index="2" fill-rule="evenodd" d="M 57.15 200.08 L 57.28 195.22 L 57.67 190.38 L 58.3 185.55 L 59.19 180.78 L 60.32 176.05 L 61.7 171.38 L 63.33 166.81 L 65.18 162.32 L 67.27000000000001 157.92 L 69.6 153.65 L 72.13 149.51 L 74.88 145.51 L 77.84 141.65 L 81 137.95 L 84.35 134.43 L 87.87 131.07999999999998 L 91.57 127.92 L 95.43 124.96 L 99.44 122.21 L 103.58 119.67 L 107.85 117.35 L 112.24 115.26 L 116.73 113.4 L 121.31 111.77 L 125.97 110.4 L 130.7 109.26 L 135.47 108.38 L 140.3 107.74 L 145.14 107.36 L 150 107.23 L 154.86 107.36 L 159.7 107.74 L 164.53 108.38 L 169.3 109.26 L 174.03 110.4 L 178.69 111.77 L 183.27 113.4 L 187.76 115.26 L 192.15 117.35 L 196.42 119.67 L 200.56 122.21 L 204.57 124.96 L 208.43 127.92 L 212.13 131.07999999999998 L 215.65 134.43 L 219 137.95 L 222.16 141.65 L 225.12 145.51 L 227.87 149.51 L 230.4 153.65 L 232.73 157.92 L 234.82 162.32 L 236.67 166.81 L 238.3 171.38 L 239.68 176.05 L 240.81 180.78 L 241.7 185.55 L 242.33 190.38 L 242.72 195.22 L 242.85 200.08 L 210.08 200.08 L 209.99 196.93 L 209.75 193.8 L 209.33 190.68 L 208.77 187.58 L 208.03 184.52 L 207.14 181.51 L 206.09 178.55 L 204.89 175.64 L 203.53 172.8 L 202.03 170.04 L 200.39 167.35 L 198.61 164.76 L 196.69 162.27 L 194.64 159.88 L 192.48 157.6 L 190.2 155.43 L 187.8 153.39 L 185.31 151.47 L 182.73 149.69 L 180.04 148.05 L 177.27 146.54 L 174.43 145.19 L 171.53 143.99 L 168.57 142.94 L 165.55 142.04 L 162.5 141.31 L 159.39 140.74 L 156.28 140.33 L 153.15 140.09 L 150 140 L 146.85 140.09 L 143.72 140.33 L 140.61 140.74 L 137.5 141.31 L 134.45 142.04 L 131.43 142.94 L 128.47 143.99 L 125.57 145.19 L 122.73 146.54 L 119.96 148.05 L 117.27 149.69 L 114.69 151.47 L 112.2 153.39 L 109.8 155.43 L 107.52 157.6 L 105.36 159.88 L 103.31 162.27 L 101.39 164.76 L 99.61 167.35 L 97.97 170.04 L 96.47 172.8 L 95.11 175.64 L 93.91 178.55 L 92.86 181.51 L 91.97 184.52 L 91.23 187.58 L 90.67 190.68 L 90.25 193.8 L 90.01 196.93 L 89.92 200.08 Z" style="opacity: 1; stroke: rgb(0, 0, 0); stroke-opacity: 0; fill: rgb(229, 228, 227); fill-opacity: 1; stroke-width: 0px;"/></g></g></g><g class="infolayer"><g class="g-gtitle"/><g class="annotation" data-index="0" style="opacity: 1;"><g class="annotation-text-g" transform="rotate(0,150,37.03999999999999)"><g class="cursor-pointer" transform="translate(73,28)"><rect class="bg" x="0.5" y="0.5" width="154" height="18" style="stroke-width: 1px; stroke: rgb(0, 0, 0); stroke-opacity: 0; fill: rgb(0, 0, 0); fill-opacity: 0;"/><text class="annotation-text" text-anchor="middle" x="77.5" y="14" style="font-family: Montserrat, Roboto, sans-serif; font-size: 13px; fill: rgb(255, 255, 255); fill-opacity: 1; white-space: pre;"><tspan style="font-weight:bold">Caregiver No Show Rate</tspan></text></g></g></g><g class="annotation" data-index="1" style="opacity: 1;"><g class="annotation-text-g" transform="rotate(0,150,194.62)"><g class="cursor-pointer" transform="translate(125,174)"><rect class="bg" x="0.5" y="0.5" width="49" height="40" style="stroke-width: 1px; stroke: rgb(0, 0, 0); stroke-opacity: 0; fill: rgb(0, 0, 0); fill-opacity: 0;"/><text class="annotation-text" text-anchor="middle" x="25.125" y="32" style="font-family: Montserrat, Roboto, sans-serif; font-size: 32px; fill: rgb(255, 107, 53); fill-opacity: 1; white-space: pre;"><tspan style="font-weight:bold">0%</tspan></text></g></g></g><g class="annotation" data-index="2" style="opacity: 1;"><g class="annotation-text-g" transform="rotate(0,57.15,224.96)"><g class="cursor-pointer" transform="translate(47,216)"><rect class="bg" x="0.5" y="0.5" width="19" height="16" style="stroke-width: 1px; stroke: rgb(0, 0, 0); stroke-opacity: 0; fill: rgb(0, 0, 0); fill-opacity: 0;"/><text class="annotation-text" text-anchor="middle" x="9.953125" y="12" style="font-family: Montserrat, Roboto, sans-serif; font-size: 11px; fill: rgb(122, 116, 112); fill-opacity: 1; white-space: pre;">0%</text></g></g></g><g class="annotation" data-index="3" style="opacity: 1;"><g class="annotation-text-g" transform="rotate(0,242.85,224.96)"><g class="cursor-pointer" transform="translate(227,216)"><rect class="bg" x="0.5" y="0.5" width="31" height="16" style="stroke-width: 1px; stroke: rgb(0, 0, 0); stroke-opacity: 0; fill: rgb(0, 0, 0); fill-opacity: 0;"/><text class="annotation-text" text-anchor="middle" x="16.0703125" y="12" style="font-family: Montserrat, Roboto, sans-serif; font-size: 11px; fill: rgb(122, 116, 112); fill-opacity: 1; white-space: pre;">100%</text></g></g></g></g></svg>