<svg class="main-svg" xmlns="http://www.w3.org/2000/svg" xmlns:xlink="http://www.w3.org/1999/xlink" width="900" height="580" style="" viewBox="0 0 900 580"><rect x="0" y="0" width="900" height="580" style="fill: rgb(255, 250, 247); fill-opacity: 1;"/><defs id="defs-67b390"><g class="clips"><clipPath id="clip67b390xyplot" class="plotclip"><rect width="780" height="383"/></clipPath><clipPath class="axesclip" id="clip67b390x"><rect x="60" y="0" width="780" height="580"/></clipPath><clipPath class="axesclip" id="clip67b390y"><rect x="0" y="110" width="900" height="383"/></clipPath><clipPath class="axesclip" id="clip67b390xy"><rect x="60" y="110" width="780" height="383"/></clipPath></g><g class="gradients"/><g class="patterns"/></defs><g class="bglayer"/><g class="layer-below"><g class="imagelayer"/><g class="shapelayer"/></g><g class="cartesianlayer"><g class="subplot xy"><g class="layer-subplot"><g class="shapelayer"/><g class="imagelayer"/></g><g class="minor-gridlayer"><g class="x"/><g class="y"/></g><g class="gridlayer"><g class="x"/><g class="y"><path class="ygrid crisp" transform="translate(0,490.71)" d="M60,0h780" style="stroke: rgb(229, 228, 227); stroke-opacity: 1; stroke-width: 1px;"/><path class="ygrid crisp" transform="translate(0,420.5)" d="M60,0h780" style="stroke: rgb(229, 228, 227); stroke-opacity: 1; stroke-width: 1px;"/><path class="ygrid crisp" transform="translate(0,366.05)" d="M60,0h780" style="stroke: rgb(229, 228, 227); stroke-opacity: 1; stroke-width: 1px;"/><path class="ygrid crisp" transform="translate(0,321.55)" d="M60,0h780" style="stroke: rgb(229, 228, 227); stroke-opacity: 1; stroke-width: 1px;"/><path class="ygrid crisp" transform="translate(0,283.93)" d="M60,0h780" style="stroke: rgb(229, 228, 227); stroke-opacity: 1; stroke-width: 1px;"/><path class="ygrid crisp" transform="translate(0,251.34)" d="M60,0h780" style="stroke: rgb(229, 228, 227); stroke-opacity: 1; stroke-width: 1px;"/><path class="ygrid crisp" transform="translate(0,222.6)" d="M60,0h780" style="stroke: rgb(229, 228, 227); stroke-opacity: 1; stroke-width: 1px;"/><path class="ygrid crisp" transform="translate(0,196.88)" d="M60,0h780" style="stroke: rgb(229, 228, 227); stroke-opacity: 1; stroke-width: 1px;"/><path class="ygrid crisp" transform="translate(0,173.62)" d="M60,0h780" style="stroke: rgb(229, 228, 227); stroke-opacity: 1; stroke-width: 1px;"/><path class="ygrid crisp" transform="translate(0,152.39)" d="M60,0h780" style="stroke: rgb(229, 228, 227); stroke-opacity: 1; stroke-width: 1px;"/><path class="ygrid crisp" transform="translate(0,132.86)" d="M60,0h780" style="stroke: rgb(229, 228, 227); stroke-opacity: 1; stroke-width: 1px;"/><path class="ygrid crisp" transform="translate(0,114.77)" d="M60,0h780" style="stroke: rgb(229, 228, 227); stroke-opacity: 1; stroke-width: 1px;"/></g></g><g class="zerolinelayer"/><g class="layer-between"><g class="shapelayer"/><g class="imagelayer"/></g><path class="xlines-below"/><path class="ylines-below"/><g class="overlines-below"/><g class="xaxislayer-below"/><g class="yaxislayer-below"/><g class="overaxes-below"/><g class="overplot"><g class="xy" transform="translate(60,110)" clip-path="url(#clip67b390xyplot)"><g class="scatterlayer mlayer"><g class="trace scatter trace2c3b71" style="stroke-miterlimit: 2; opacity: 1;"><g class="fills"/><g class="errorbars"/><g class="lines"/><g class="points"><path class="point" transform="translate(270.62,358.85)" d="M4,0A4,4 0 1,1 0,-4A4,4 0 0,1 4,0Z" style="opacity: 0.85; stroke-width: 0px; fill: rgb(255, 107, 53); fill-opacity: 1;"/><path class="point" transform="translate(209.55,191.87)" d="M4,0A4,4 0 1,1 0,-4A4,4 0 0,1 4,0Z" style="opacity: 0.85; stroke-width: 0px; fill: rgb(255, 107, 53); fill-opacity: 1;"/><path class="point" transform="translate(281.79,223.73)" d="M4,0A4,4 0 1,1 0,-4A4,4 0 0,1 4,0Z" style="opacity: 0.85; stroke-width: 0px; fill: rgb(255, 107, 53); fill-opacity: 1;"/><path class="point" transform="translate(259.4,57.76)" d="M4,0A4,4 0 1,1 0,-4A4,4 0 0,1 4,0Z" style="opacity: 0.85; stroke-width: 0px; fill: rgb(255, 107, 53); fill-opacity: 1;"/><path class="point" transform="translate(44,128.31)" d="M4,0A4,4 0 1,1 0,-4A4,4 0 0,1 4,0Z" style="opacity: 0.85; stroke-width: 0px; fill: rgb(255, 107, 53); fill-opacity: 1;"/><path class="point" transform="translate(295.55,81.39)" d="M4,0A4,4 0 1,1 0,-4A4,4 0 0,1 4,0Z" style="opacity: 0.85; stroke-width: 0px; fill: rgb(255, 107, 53); fill-opacity: 1;"/><path class="point" transform="translate(268.82,194.5)" d="M4,0A4,4 0 1,1 0,-4A4,4 0 0,1 4,0Z" style="opacity: 0.85; stroke-width: 0px; fill: rgb(255, 107, 53); fill-opacity: 1;"/><path class="point" transform="translate(272.29,294.43)" d="M4,0A4,4 0 1,1 0,-4A4,4 0 0,1 4,0Z" style="opacity: 0.85; stroke-width: 0px; fill: rgb(255, 107, 53); fill-opacity: 1;"/></g><g class="text"><g class="textpoint" transform="translate(0,-8.25)"><text x="270.62" y="358.85" text-anchor="middle" style="font-family: Montserrat, Roboto, sans-serif; font-size: 9px; fill: rgb(255, 107, 53); fill-opacity: 1; white-space: pre;">Llama 3.1 70B</text></g><g class="textpoint" transform="translate(0,-8.25)"><text x="209.55" y="191.87" text-anchor="middle" style="font-family: Montserrat, Roboto, sans-serif; font-size: 9px; fill: rgb(255, 107, 53); fill-opacity: 1; white-space: pre;">Mistral 7B</text></g><g class="textpoint" transform="translate(0,-8.25)"><text x="281.79" y="223.73" text-anchor="middle" style="font-family: Montserrat, Roboto, sans-serif; font-size: 9px; fill: rgb(255, 107, 53); fill-opacity: 1; white-space: pre;">Gemma 2 9B</text></g><g class="textpoint" transform="translate(0,-8.25)"><text x="259.4" y="57.76" text-anchor="middle" style="font-family: Montserrat, Roboto, sans-serif; font-size: 9px; fill: rgb(255, 107, 53); fill-opacity: 1; white-space: pre;">Phi-3 Mini</text></g><g class="textpoint" transform="translate(0,-8.25)"><text x="44" y="128.31" text-anchor="middle" style="font-family: Montserrat, Roboto, sans-serif; font-size: 9px; fill: rgb(255, 107, 53); fill-opacity: 1; white-space: pre;">Qwen 2.5 72B</text></g><g class="textpoint" transform="translate(0,-8.25)"><text x="295.55" y="81.39" text-anchor="middle" style="font-family: Montserrat, Roboto, sans-serif; font-size: 9px; fill: rgb(255, 107, 53); fill-opacity: 1; white-space: pre;">DeepSeek V2</text></g><g class="textpoint" transform="translate(0,-8.25)"><text x="268.82" y="194.5" text-anchor="middle" style="font-family: Montserrat, Roboto, sans-serif; font-size: 9px; fill: rgb(255, 107, 53); fill-opacity: 1; white-space: pre;">Falcon 180B</text></g><g class="textpoint" transform="translate(0,-8.25)"><text x="272.29" y="294.43" text-anchor="middle" style="font-family: Montserrat, Roboto, sans-serif; font-size: 9px; fill: rgb(255, 107, 53); fill-opacity: 1; white-space: pre;">Yi 34B</text></g></g></g><g class="trace scatter trace8283b0" style="stroke-miterlimit: 2; opacity: 1;"><g class="fills"/><g class="errorbars"/><g class="lines"/><g class="points"><path class="point" transform="translate(678.46,24.15)" d="M4,0A4,4 0 1,1 0,-4A4,4 0 0,1 4,0Z" style="opacity: 0.85; stroke-width: 0px; fill: rgb(0, 121, 125); fill-opacity: 1;"/><path class="point" transform="translate(485.65,46.83)" d="M4,0A4,4 0 1,1 0,-4A4,4 0 0,1 4,0Z" style="opacity: 0.85; stroke-width: 0px; fill: rgb(0, 121, 125); fill-opacity: 1;"/><path class="point" transform="translate(719.47,213.74)" d="M4,0A4,4 0 1,1 0,-4A4,4 0 0,1 4,0Z" style="opacity: 0.85; stroke-width: 0px; fill: rgb(0, 121, 125); fill-opacity: 1;"/><path class="point" transform="translate(691.7,121.79)" d="M4,0A4,4 0 1,1 0,-4A4,4 0 0,1 4,0Z" style="opacity: 0.85; stroke-width: 0px; fill: rgb(0, 121, 125); fill-opacity: 1;"/><path class="point" transform="translate(710.41,285.14)" d="M4,0A4,4 0 1,1 0,-4A4,4 0 0,1 4,0Z" style="opacity: 0.85; stroke-width: 0px; fill: rgb(0, 121, 125); fill-opacity: 1;"/><path class="point" transform="translate(633.77,230.89)" d="M4,0A4,4 0 1,1 0,-4A4,4 0 0,1 4,0Z" style="opacity: 0.85; stroke-width: 0px; fill: rgb(0, 121, 125); fill-opacity: 1;"/><path class="point" transform="translate(736,67.41)" d="M4,0A4,4 0 1,1 0,-4A4,4 0 0,1 4,0Z" style="opacity: 0.85; stroke-width: 0px; fill: rgb(0, 121, 125); fill-opacity: 1;"/></g><g class="text"><g class="textpoint" transform="translate(0,-8.25)"><text x="678.46" y="24.15" text-anchor="middle" style="font-family: Montserrat, Roboto, sans-serif; font-size: 9px; fill: rgb(0, 121, 125); fill-opacity: 1; white-space: pre;">GPT-4o</text></g><g class="textpoint" transform="translate(0,-8.25)"><text x="485.65" y="46.83" text-anchor="middle" style="font-family: Montserrat, Roboto, sans-serif; font-size: 9px; fill: rgb(0, 121, 125); fill-opacity: 1; white-space: pre;">Claude Sonnet 4</text></g><g class="textpoint" transform="translate(0,-8.25)"><text x="719.47" y="213.74" text-anchor="middle" style="font-family: Montserrat, Roboto, sans-serif; font-size: 9px; fill: rgb(0, 121, 125); fill-opacity: 1; white-space: pre;">Gemini 1.5 Pro</text></g><g class="textpoint" transform="translate(0,-8.25)"><text x="691.7" y="121.79" text-anchor="middle" style="font-family: Montserrat, Roboto, sans-serif; font-size: 9px; fill: rgb(0, 121, 125); fill-opacity: 1; white-space: pre;">GPT-4 Turbo</text></g><g class="textpoint" transform="translate(0,-8.25)"><text x="710.41" y="285.14" text-anchor="middle" style="font-family: Montserrat, Roboto, sans-serif; font-size: 9px; fill: rgb(0, 121, 125); fill-opacity: 1; white-space: pre;">Claude Opus 4</text></g><g class="textpoint" transform="translate(0,-8.25)"><text x="633.77" y="230.89" text-anchor="middle" style="font-family: Montserrat, Roboto, sans-serif; font-size: 9px; fill: rgb(0, 121, 125); fill-opacity: 1; white-space: pre;">Gemini Ultra</text></g><g class="textpoint" transform="translate(0,-8.25)"><text x="736" y="67.41" text-anchor="middle" style="font-family: Montserrat, Roboto, sans-serif; font-size: 9px; fill: rgb(0, 121, 125); fill-opacity: 1; white-space: pre;">GPT-4o Mini</text></g></g></g></g></g></g><g class="zerolinelayer-above"/><path class="xlines-above crisp" d="M60,493.5H840" style="fill: none; stroke-width: 1px; stroke: rgb(217, 214, 213); stroke-opacity: 1;"/><path class="ylines-above crisp" d="M0,0" style="fill: none;"/><g class="overlines-above"/><g class="xaxislayer-above"><g class="xtick"><text text-anchor="middle" x="0" y="503.5" transform="translate(110.25,0)" style="font-family: Montserrat, Roboto, sans-serif; font-size: 7.5px; fill: rgb(122, 116, 112); fill-opacity: 1; white-space: pre;">5</text></g><g class="xtick"><text text-anchor="middle" x="0" y="506" style="font-family: Montserrat, Roboto, sans-serif; font-size: 10px; fill: rgb(122, 116, 112); fill-opacity: 1; white-space: pre;" transform="translate(184.89,0)">0.1</text></g><g class="xtick"><text text-anchor="middle" x="0" y="503.5" style="font-family: Montserrat, Roboto, sans-serif; font-size: 7.5px; fill: rgb(122, 116, 112); fill-opacity: 1; white-space: pre;" transform="translate(259.53,0)">2</text></g><g class="xtick"><text text-anchor="middle" x="0" y="503.5" style="font-family: Montserrat, Roboto, sans-serif; font-size: 7.5px; fill: rgb(122, 116, 112); fill-opacity: 1; white-space: pre;" transform="translate(358.2,0)">5</text></g><g class="xtick"><text text-anchor="middle" x="0" y="506" style="font-family: Montserrat, Roboto, sans-serif; font-size: 10px; fill: rgb(122, 116, 112); fill-opacity: 1; white-space: pre;" transform="translate(432.84,0)">1</text></g><g class="xtick"><text text-anchor="middle" x="0" y="503.5" style="font-family: Montserrat, Roboto, sans-serif; font-size: 7.5px; fill: rgb(122, 116, 112); fill-opacity: 1; white-space: pre;" transform="translate(507.48,0)">2</text></g><g class="xtick"><text text-anchor="middle" x="0" y="503.5" style="font-family: Montserrat, Roboto, sans-serif; font-size: 7.5px; fill: rgb(122, 116, 112); fill-opacity: 1; white-space: pre;" transform="translate(606.15,0)">5</text></g><g class="xtick"><text text-anchor="middle" x="0" y="506" style="font-family: Montserrat, Roboto, sans-serif; font-size: 10px; fill: rgb(122, 116, 112); fill-opacity: 1; white-space: pre;" transform="translate(680.79,0)">10</text></g><g class="xtick"><text text-anchor="middle" x="0" y="503.5" style="font-family: Montserrat, Roboto, sans-serif; font-size: 7.5px; fill: rgb(122, 116, 112); fill-opacity: 1; white-space: pre;" transform="translate(755.43,0)">2</text></g></g><g class="yaxislayer-above"><g class="ytick"><text text-anchor="end" x="59" y="3.5" transform="translate(0,490.71)" style="font-family: Montserrat, Roboto, sans-serif; font-size: 10px; fill: rgb(122, 116, 112); fill-opacity: 1; white-space: pre;">1.5</text></g><g class="ytick"><text text-anchor="end" x="59" y="3.5" style="font-family: Montserrat, Roboto, sans-serif; font-size: 10px; fill: rgb(122, 116, 112); fill-opacity: 1; white-space: pre;" transform="translate(0,420.5)">2</text></g><g class="ytick"><text text-anchor="end" x="59" y="3.5" style="font-family: Montserrat, Roboto, sans-serif; font-size: 10px; fill: rgb(122, 116, 112); fill-opacity: 1; white-space: pre;" transform="translate(0,366.05)">2.5</text></g><g class="ytick"><text text-anchor="end" x="59" y="3.5" style="font-family: Montserrat, Roboto, sans-serif; font-size: 10px; fill: rgb(122, 116, 112); fill-opacity: 1; white-space: pre;" transform="translate(0,321.55)">3</text></g><g class="ytick"><text text-anchor="end" x="59" y="3.5" style="font-family: Montserrat, Roboto, sans-serif; font-size: 10px; fill: rgb(122, 116, 112); fill-opacity: 1; white-space: pre;" transform="translate(0,283.93)">3.5</text></g><g class="ytick"><text text-anchor="end" x="59" y="3.5" style="font-family: Montserrat, Roboto, sans-serif; font-size: 10px; fill: rgb(122, 116, 112); fill-opacity: 1; white-space: pre;" transform="translate(0,251.34)">4</text></g><g class="ytick"><text text-anchor="end" x="59" y="3.5" style="font-family: Montserrat, Roboto, sans-serif; font-size: 10px; fill: rgb(122, 116, 112); fill-opacity: 1; white-space: pre;" transform="translate(0,222.6)">4.5</text></g><g class="ytick"><text text-anchor="end" x="59" y="3.5" style="font-family: Montserrat, Roboto, sans-serif; font-size: 10px; fill: rgb(122, 116, 112); fill-opacity: 1; white-space: pre;" transform="translate(0,196.88)">5</text></g><g class="ytick"><text text-anchor="end" x="59" y="3.5" style="font-family: Montserrat, Roboto, sans-serif; font-size: 10px; fill: rgb(122, 116, 112); fill-opacity: 1; white-space: pre;" transform="translate(0,173.62)">5.5</text></g><g class="ytick"><text text-anchor="end" x="59" y="3.5" style="font-family: Montserrat, Roboto, sans-serif; font-size: 10px; fill: rgb(122, 116, 112); fill-opacity: 1; white-space: pre;" transform="translate(0,152.39)">6</text></g><g class="ytick"><text text-anchor="end" x="59" y="3.5" style="font-family: Montserrat, Roboto, sans-serif; font-size: 10px; fill: rgb(122, 116, 112); fill-opacity: 1; white-space: pre;" transform="translate(0,132.86)">6.5</text></g><g class="ytick"><text text-anchor="end" x="59" y="3.5" style="font-family: Montserrat, Roboto, sans-serif; font-size: 10px; fill: rgb(122, 116, 112); fill-opacity: 1; white-space: pre;" transform="translate(0,114.77)">7</text></g></g><g class="overaxes-above"/></g></g><g class="polarlayer"/><g class="smithlayer"/><g class="ternarylayer"/><g class="geolayer"/><g class="funnelarealayer"/><g class="pielayer"/><g class="iciclelayer"/><g class="treemaplayer"/><g class="sunburstlayer"/><g class="glimages"/><defs id="topdefs-67b390"><g class="clips"/><clipPath id="legend67b390"><rect width="215" height="29" x="0" y="0"/></clipPath></defs><g class="layer-above"><g class="imagelayer"/><g class="shapelayer"/></g><g class="infolayer"><g class="legend" pointer-events="all" transform="translate(342.5,538.96)"><rect class="bg" shape-rendering="crispEdges" style="stroke: rgb(68, 68, 68); stroke-opacity: 1; fill: rgb(0, 0, 0); fill-opacity: 0; stroke-width: 0px;" width="215" height="29" x="0" y="0"/><g class="scrollbox" transform="" clip-path="url(#legend67b390)"><g class="groups"><g class="traces" transform="translate(0,14.5)" style="opacity: 1;"><text class="legendtext" text-anchor="start" x="40" y="3.9" style="font-family: Montserrat, Roboto, sans-serif; font-size: 10px; fill: rgb(82, 77, 75); fill-opacity: 1; white-space: pre;">Open Source</text><g class="layers" style="opacity: 1;"><g class="legendfill"/><g class="legendlines"/><g class="legendsymbols"><g class="legendpoints"><path class="scatterpts" transform="translate(20,0)" d="M4,0A4,4 0 1,1 0,-4A4,4 0 0,1 4,0Z" style="opacity: 0.85; stroke-width: 0px; fill: rgb(255, 107, 53); fill-opacity: 1;"/></g></g></g><rect class="legendtoggle" x="0" y="-9.5" width="101.4375" height="19" style="fill: rgb(0, 0, 0); fill-opacity: 0;"/></g><g class="traces" transform="translate(103.9375,14.5)" style="opacity: 1;"><text class="legendtext" text-anchor="start" x="40" y="3.9" style="font-family: Montserrat, Roboto, sans-serif; font-size: 10px; fill: rgb(82, 77, 75); fill-opacity: 1; white-space: pre;">Closed Source</text><g class="layers" style="opacity: 1;"><g class="legendfill"/><g class="legendlines"/><g class="legendsymbols"><g class="legendpoints"><path class="scatterpts" transform="translate(20,0)" d="M4,0A4,4 0 1,1 0,-4A4,4 0 0,1 4,0Z" style="opacity: 0.85; stroke-width: 0px; fill: rgb(0, 121, 125); fill-opacity: 1;"/></g></g></g><rect class="legendtoggle" x="0" y="-9.5" width="108.09375" height="19" style="fill: rgb(0, 0, 0); fill-opacity: 0;"/></g></g></g><rect class="scrollbar" rx="20" ry="3" width="0" height="0" style="fill: rgb(128, 139, 164); fill-opacity: 1;" x="0" y="0"/></g><g class="g-gtitle"/><g class="g-xtitle"><text class="xtitle" x="450" y="530.2" text-anchor="middle" style="opacity: 1; font-family: Montserrat, Roboto, sans-serif; font-size: 11px; fill: rgb(82, 77, 75); fill-opacity: 1; white-space: pre;">Cost per 1M Tokens ($)</text></g><g class="g-ytitle"><text class="ytitle" transform="rotate(-90,26.74375,301.5)" x="26.74375" y="301.5" text-anchor="middle" style="opacity: 1; font-family: Montserrat, Roboto, sans-serif; font-size: 11px; fill: rgb(82, 77, 75); fill-opacity: 1; white-space: pre;">Total Usage in Millions of Tokens</text></g><g class="annotation" data-index="0" style="opacity: 1;"><g class="annotation-text-g" transform="rotate(0,234,33.499999999999986)"><g class="cursor-pointer" transform="translate(60,19)"><rect class="bg" x="0.5" y="0.5" width="347" height="28" style="stroke-width: 1px; stroke: rgb(0, 0, 0); stroke-opacity: 0; fill: rgb(0, 0, 0); fill-opacity: 0;"/><text class="annotation-text" text-anchor="middle" x="173.78125" y="22" style="font-family: Montserrat, Roboto, sans-serif; font-size: 22px; fill: rgb(31, 28, 27); fill-opacity: 1; white-space: pre;"><tspan style="font-weight:bold">Cost vs. Usage Based on Source</tspan></text></g></g></g><g class="annotation" data-index="1" style="opacity: 1;"><g class="annotation-text-g" transform="rotate(0,268,72.49999999999999)"><g class="cursor-pointer" transform="translate(60,63)"><rect class="bg" x="0.5" y="0.5" width="415" height="18" style="stroke-width: 1px; stroke: rgb(0, 0, 0); stroke-opacity: 0; fill: rgb(0, 0, 0); fill-opacity: 0;"/><text class="annotation-text" text-anchor="middle" x="207.9296875" y="14" style="font-family: Montserrat, Roboto, sans-serif; font-size: 13px; fill: rgb(82, 77, 75); fill-opacity: 1; white-space: pre;">Total monthly token usage (log scale) vs. cost per 1M tokens (log scale)</text></g></g></g></g></svg>