<svg class="main-svg" xmlns="http://www.w3.org/2000/svg" xmlns:xlink="http://www.w3.org/1999/xlink" width="900" height="560" style="" viewBox="0 0 900 560"><rect x="0" y="0" width="900" height="560" style="fill: rgb(250, 250, 250); fill-opacity: 1;"/><defs id="defs-6875e8"><g class="clips"><clipPath id="clip6875e8xyplot" class="plotclip"><rect width="790" height="383"/></clipPath><clipPath class="axesclip" id="clip6875e8x"><rect x="60" y="0" width="790" height="560"/></clipPath><clipPath class="axesclip" id="clip6875e8y"><rect x="0" y="90" width="900" height="383"/></clipPath><clipPath class="axesclip" id="clip6875e8xy"><rect x="60" y="90" width="790" height="383"/></clipPath></g><g class="gradients"/><g class="patterns"/></defs><g class="bglayer"/><g class="layer-below"><g class="imagelayer"/><g class="shapelayer"/></g><g class="cartesianlayer"><g class="subplot xy"><g class="layer-subplot"><g class="shapelayer"/><g class="imagelayer"/></g><g class="minor-gridlayer"><g class="x"/><g class="y"/></g><g class="gridlayer"><g class="x"/><g class="y"><path class="ygrid crisp" transform="translate(0,431.18)" d="M60,0h790" style="stroke: rgb(235, 235, 235); stroke-opacity: 1; stroke-width: 1px;"/><path class="ygrid crisp" transform="translate(0,389.36)" d="M60,0h790" style="stroke: rgb(235, 235, 235); stroke-opacity: 1; stroke-width: 1px;"/><path class="ygrid crisp" transform="translate(0,347.53)" d="M60,0h790" style="stroke: rgb(235, 235, 235); stroke-opacity: 1; stroke-width: 1px;"/><path class="ygrid crisp" transform="translate(0,305.71000000000004)" d="M60,0h790" style="stroke: rgb(235, 235, 235); stroke-opacity: 1; stroke-width: 1px;"/><path class="ygrid crisp" transform="translate(0,263.89)" d="M60,0h790" style="stroke: rgb(235, 235, 235); stroke-opacity: 1; stroke-width: 1px;"/><path class="ygrid crisp" transform="translate(0,222.07)" d="M60,0h790" style="stroke: rgb(235, 235, 235); stroke-opacity: 1; stroke-width: 1px;"/><path class="ygrid crisp" transform="translate(0,180.25)" d="M60,0h790" style="stroke: rgb(235, 235, 235); stroke-opacity: 1; stroke-width: 1px;"/><path class="ygrid crisp" transform="translate(0,138.43)" d="M60,0h790" style="stroke: rgb(235, 235, 235); stroke-opacity: 1; stroke-width: 1px;"/><path class="ygrid crisp" transform="translate(0,96.6)" d="M60,0h790" style="stroke: rgb(235, 235, 235); stroke-opacity: 1; stroke-width: 1px;"/></g></g><g class="zerolinelayer"/><g class="layer-between"><g class="shapelayer"/><g class="imagelayer"/></g><path class="xlines-below"/><path class="ylines-below"/><g class="overlines-below"/><g class="xaxislayer-below"/><g class="yaxislayer-below"/><g class="overaxes-below"/><g class="overplot"><g class="xy" transform="translate(60,90)" clip-path="url(#clip6875e8xyplot)"><g class="scatterlayer mlayer"><g class="trace scatter trace346a8f" style="stroke-miterlimit: 2;"><g class="fills"><g><path class="js-fill" d="M790,383L0,383L0,374.64L112.86,366.27L225.71,349.54L338.57,324.45L451.43,307.72L564.29,316.09L677.14,290.99L790,265.9" style="fill: rgb(124, 58, 237); fill-opacity: 0.75; stroke-width: 0;"/></g><g><path class="js-fill" d="M0,353.72L112.86,328.63L225.71,290.99L338.57,249.17L451.43,219.89L564.29,224.08L677.14,190.62L790,161.34L790,265.9L677.14,290.99L564.29,316.09L451.43,307.72L338.57,324.45L225.71,349.54L112.86,366.27L0,374.64Z" style="fill: rgb(245, 158, 11); fill-opacity: 0.75; stroke-width: 0;"/></g></g><g class="errorbars"/><g class="lines"><path class="js-line" d="M0,374.64L112.86,366.27L225.71,349.54L338.57,324.45L451.43,307.72L564.29,316.09L677.14,290.99L790,265.9" style="vector-effect: none; fill: none; stroke: rgb(124, 58, 237); stroke-opacity: 1; stroke-width: 0px; opacity: 1;"/></g><g class="points"/><g class="text"/></g><g class="trace scatter trace07cdae" style="stroke-miterlimit: 2;"><g class="fills"><g><path class="js-fill" d="M0,341.18L112.86,303.54L225.71,257.53L451.43,182.26L564.29,178.07L677.14,132.07L790,94.43L790,161.34L677.14,190.62L564.29,224.08L451.43,219.89L338.57,249.17L225.71,290.99L112.86,328.63L0,353.72Z" style="fill: rgb(6, 95, 70); fill-opacity: 0.75; stroke-width: 0;"/></g></g><g class="errorbars"/><g class="lines"><path class="js-line" d="M0,353.72L112.86,328.63L225.71,290.99L338.57,249.17L451.43,219.89L564.29,224.08L677.14,190.62L790,161.34" style="vector-effect: none; fill: none; stroke: rgb(245, 158, 11); stroke-opacity: 1; stroke-width: 0px; opacity: 1;"/></g><g class="points"/><g class="text"/></g><g class="trace scatter traceac8cf2" style="stroke-miterlimit: 2;"><g class="fills"><g><path class="js-fill" d="M0,337L112.86,290.99L225.71,228.26L338.57,186.44L451.43,152.98L564.29,152.98L677.14,102.79L790,60.97L790,94.43L677.14,132.07L564.29,178.07L451.43,182.26L225.71,257.53L112.86,303.54L0,341.18Z" style="fill: rgb(167, 243, 208); fill-opacity: 0.75; stroke-width: 0;"/></g></g><g class="errorbars"/><g class="lines"><path class="js-line" d="M0,341.18L112.86,303.54L225.71,257.53L451.43,182.26L564.29,178.07L677.14,132.07L790,94.43" style="vector-effect: none; fill: none; stroke: rgb(6, 95, 70); stroke-opacity: 1; stroke-width: 0px; opacity: 1;"/></g><g class="points"/><g class="text"/></g><g class="trace scatter tracea8400f" style="stroke-miterlimit: 2;"><g class="fills"><g><path class="js-fill" d="M0,278.45L112.86,236.62L225.71,178.07L338.57,140.43L451.43,106.98L564.29,106.98L677.14,56.79L790,19.15L790,60.97L677.14,102.79L564.29,152.98L451.43,152.98L338.57,186.44L225.71,228.26L112.86,290.99L0,337Z" style="fill: rgb(153, 27, 27); fill-opacity: 0.75; stroke-width: 0;"/></g></g><g class="errorbars"/><g class="lines"><path class="js-line" d="M0,337L112.86,290.99L225.71,228.26L338.57,186.44L451.43,152.98L564.29,152.98L677.14,102.79L790,60.97" style="vector-effect: none; fill: none; stroke: rgb(167, 243, 208); stroke-opacity: 1; stroke-width: 0px; opacity: 1;"/></g><g class="points"/><g class="text"/></g><g class="trace scatter tracec2f937" style="stroke-miterlimit: 2;"><g class="fills"/><g class="errorbars"/><g class="lines"><path class="js-line" d="M0,278.45L112.86,236.62L225.71,178.07L338.57,140.43L451.43,106.98L564.29,106.98L677.14,56.79L790,19.15" style="vector-effect: none; fill: none; stroke: rgb(153, 27, 27); stroke-opacity: 1; stroke-width: 0px; opacity: 1;"/></g><g class="points"/><g class="text"/></g></g></g></g><g class="zerolinelayer-above"/><path class="xlines-above crisp" d="M60,473.5H850" style="fill: none; stroke-width: 1px; stroke: rgb(220, 220, 220); stroke-opacity: 1;"/><path class="ylines-above crisp" d="M0,0" style="fill: none;"/><g class="overlines-above"/><g class="xaxislayer-above"><g class="xtick"><text text-anchor="middle" x="0" y="486" transform="translate(60,0)" style="font-family: 'IBM Plex Mono', 'IBM Plex Sans', sans-serif; font-size: 10px; fill: rgb(136, 136, 136); fill-opacity: 1; white-space: pre;">2010</text></g><g class="xtick"><text text-anchor="middle" x="0" y="486" style="font-family: 'IBM Plex Mono', 'IBM Plex Sans', sans-serif; font-size: 10px; fill: rgb(136, 136, 136); fill-opacity: 1; white-space: pre;" transform="translate(172.86,0)">2012</text></g><g class="xtick"><text text-anchor="middle" x="0" y="486" style="font-family: 'IBM Plex Mono', 'IBM Plex Sans', sans-serif; font-size: 10px; fill: rgb(136, 136, 136); fill-opacity: 1; white-space: pre;" transform="translate(285.71000000000004,0)">2014</text></g><g class="xtick"><text text-anchor="middle" x="0" y="486" style="font-family: 'IBM Plex Mono', 'IBM Plex Sans', sans-serif; font-size: 10px; fill: rgb(136, 136, 136); fill-opacity: 1; white-space: pre;" transform="translate(398.57,0)">2016</text></g><g class="xtick"><text text-anchor="middle" x="0" y="486" style="font-family: 'IBM Plex Mono', 'IBM Plex Sans', sans-serif; font-size: 10px; fill: rgb(136, 136, 136); fill-opacity: 1; white-space: pre;" transform="translate(511.43,0)">2018</text></g><g class="xtick"><text text-anchor="middle" x="0" y="486" style="font-family: 'IBM Plex Mono', 'IBM Plex Sans', sans-serif; font-size: 10px; fill: rgb(136, 136, 136); fill-opacity: 1; white-space: pre;" transform="translate(624.29,0)">2020</text></g><g class="xtick"><text text-anchor="middle" x="0" y="486" style="font-family: 'IBM Plex Mono', 'IBM Plex Sans', sans-serif; font-size: 10px; fill: rgb(136, 136, 136); fill-opacity: 1; white-space: pre;" transform="translate(737.14,0)">2022</text></g><g class="xtick"><text text-anchor="middle" x="0" y="486" style="font-family: 'IBM Plex Mono', 'IBM Plex Sans', sans-serif; font-size: 10px; fill: rgb(136, 136, 136); fill-opacity: 1; white-space: pre;" transform="translate(850,0)">2024</text></g></g><g class="yaxislayer-above"><g class="ytick"><text text-anchor="end" x="59" y="3.5" transform="translate(0,473)" style="font-family: 'IBM Plex Mono', 'IBM Plex Sans', sans-serif; font-size: 10px; fill: rgb(136, 136, 136); fill-opacity: 1; white-space: pre;">0</text></g><g class="ytick"><text text-anchor="end" x="59" y="3.5" style="font-family: 'IBM Plex Mono', 'IBM Plex Sans', sans-serif; font-size: 10px; fill: rgb(136, 136, 136); fill-opacity: 1; white-space: pre;" transform="translate(0,431.18)">10</text></g><g class="ytick"><text text-anchor="end" x="59" y="3.5" style="font-family: 'IBM Plex Mono', 'IBM Plex Sans', sans-serif; font-size: 10px; fill: rgb(136, 136, 136); fill-opacity: 1; white-space: pre;" transform="translate(0,389.36)">20</text></g><g class="ytick"><text text-anchor="end" x="59" y="3.5" style="font-family: 'IBM Plex Mono', 'IBM Plex Sans', sans-serif; font-size: 10px; fill: rgb(136, 136, 136); fill-opacity: 1; white-space: pre;" transform="translate(0,347.53)">30</text></g><g class="ytick"><text text-anchor="end" x="59" y="3.5" style="font-family: 'IBM Plex Mono', 'IBM Plex Sans', sans-serif; font-size: 10px; fill: rgb(136, 136, 136); fill-opacity: 1; white-space: pre;" transform="translate(0,305.71000000000004)">40</text></g><g class="ytick"><text text-anchor="end" x="59" y="3.5" style="font-family: 'IBM Plex Mono', 'IBM Plex Sans', sans-serif; font-size: 10px; fill: rgb(136, 136, 136); fill-opacity: 1; white-space: pre;" transform="translate(0,263.89)">50</text></g><g class="ytick"><text text-anchor="end" x="59" y="3.5" style="font-family: 'IBM Plex Mono', 'IBM Plex Sans', sans-serif; font-size: 10px; fill: rgb(136, 136, 136); fill-opacity: 1; white-space: pre;" transform="translate(0,222.07)">60</text></g><g class="ytick"><text text-anchor="end" x="59" y="3.5" style="font-family: 'IBM Plex Mono', 'IBM Plex Sans', sans-serif; font-size: 10px; fill: rgb(136, 136, 136); fill-opacity: 1; white-space: pre;" transform="translate(0,180.25)">70</text></g><g class="ytick"><text text-anchor="end" x="59" y="3.5" style="font-family: 'IBM Plex Mono', 'IBM Plex Sans', sans-serif; font-size: 10px; fill: rgb(136, 136, 136); fill-opacity: 1; white-space: pre;" transform="translate(0,138.43)">80</text></g><g class="ytick"><text text-anchor="end" x="59" y="3.5" style="font-family: 'IBM Plex Mono', 'IBM Plex Sans', sans-serif; font-size: 10px; fill: rgb(136, 136, 136); fill-opacity: 1; white-space: pre;" transform="translate(0,96.6)">90</text></g></g><g class="overaxes-above"/></g></g><g class="polarlayer"/><g class="smithlayer"/><g class="ternarylayer"/><g class="geolayer"/><g class="funnelarealayer"/><g class="pielayer"/><g class="iciclelayer"/><g class="treemaplayer"/><g class="sunburstlayer"/><g class="glimages"/><defs id="topdefs-6875e8"><g class="clips"/><clipPath id="legend6875e8"><rect width="465" height="29" x="0" y="0"/></clipPath></defs><g class="layer-above"><g class="imagelayer"/><g class="shapelayer"/></g><g class="infolayer"><g class="legend" pointer-events="all" transform="translate(222.5,518.96)"><rect class="bg" shape-rendering="crispEdges" style="stroke: rgb(68, 68, 68); stroke-opacity: 1; fill: rgb(0, 0, 0); fill-opacity: 0; stroke-width: 0px;" width="465" height="29" x="0" y="0"/><g class="scrollbox" transform="" clip-path="url(#legend6875e8)"><g class="groups"><g class="traces" transform="translate(0,14.5)" style="opacity: 1;"><text class="legendtext" text-anchor="start" x="40" y="3.9" style="font-family: 'IBM Plex Mono', 'IBM Plex Sans', sans-serif; font-size: 10px; fill: rgb(88, 88, 88); fill-opacity: 1; white-space: pre;">Other</text><g class="layers"><g class="legendfill"><path class="js-fill" d="M5,-2h30v6h-30z" style="stroke-width: 0; fill: rgb(153, 27, 27); fill-opacity: 0.75;"/></g><g class="legendlines"><path class="js-line" d="M5,-2h30" style="fill: none; stroke: rgb(153, 27, 27); stroke-opacity: 1; stroke-width: 0px;"/></g><g class="legendsymbols"><g class="legendpoints"/></g></g><rect class="legendtoggle" x="0" y="-9.5" width="67.515625" height="19" style="fill: rgb(0, 0, 0); fill-opacity: 0;"/></g><g class="traces" transform="translate(70.015625,14.5)" style="opacity: 1;"><text class="legendtext" text-anchor="start" x="40" y="3.9" style="font-family: 'IBM Plex Mono', 'IBM Plex Sans', sans-serif; font-size: 10px; fill: rgb(88, 88, 88); fill-opacity: 1; white-space: pre;">Eagle Ford</text><g class="layers"><g class="legendfill"><path class="js-fill" d="M5,-2h30v6h-30z" style="stroke-width: 0; fill: rgb(167, 243, 208); fill-opacity: 0.75;"/></g><g class="legendlines"><path class="js-line" d="M5,-2h30" style="fill: none; stroke: rgb(167, 243, 208); stroke-opacity: 1; stroke-width: 0px;"/></g><g class="legendsymbols"><g class="legendpoints"/></g></g><rect class="legendtoggle" x="0" y="-9.5" width="91.421875" height="19" style="fill: rgb(0, 0, 0); fill-opacity: 0;"/></g><g class="traces" transform="translate(163.9375,14.5)" style="opacity: 1;"><text class="legendtext" text-anchor="start" x="40" y="3.9" style="font-family: 'IBM Plex Mono', 'IBM Plex Sans', sans-serif; font-size: 10px; fill: rgb(88, 88, 88); fill-opacity: 1; white-space: pre;">Haynesville</text><g class="layers"><g class="legendfill"><path class="js-fill" d="M5,-2h30v6h-30z" style="stroke-width: 0; fill: rgb(6, 95, 70); fill-opacity: 0.75;"/></g><g class="legendlines"><path class="js-line" d="M5,-2h30" style="fill: none; stroke: rgb(6, 95, 70); stroke-opacity: 1; stroke-width: 0px;"/></g><g class="legendsymbols"><g class="legendpoints"/></g></g><rect class="legendtoggle" x="0" y="-9.5" width="93.640625" height="19" style="fill: rgb(0, 0, 0); fill-opacity: 0;"/></g><g class="traces" transform="translate(260.078125,14.5)" style="opacity: 1;"><text class="legendtext" text-anchor="start" x="40" y="3.9" style="font-family: 'IBM Plex Mono', 'IBM Plex Sans', sans-serif; font-size: 10px; fill: rgb(88, 88, 88); fill-opacity: 1; white-space: pre;">Appalachia</text><g class="layers"><g class="legendfill"><path class="js-fill" d="M5,-2h30v6h-30z" style="stroke-width: 0; fill: rgb(245, 158, 11); fill-opacity: 0.75;"/></g><g class="legendlines"><path class="js-line" d="M5,-2h30" style="fill: none; stroke: rgb(245, 158, 11); stroke-opacity: 1; stroke-width: 0px;"/></g><g class="legendsymbols"><g class="legendpoints"/></g></g><rect class="legendtoggle" x="0" y="-9.5" width="91.984375" height="19" style="fill: rgb(0, 0, 0); fill-opacity: 0;"/></g><g class="traces" transform="translate(354.5625,14.5)" style="opacity: 1;"><text class="legendtext" text-anchor="start" x="40" y="3.9" style="font-family: 'IBM Plex Mono', 'IBM Plex Sans', sans-serif; font-size: 10px; fill: rgb(88, 88, 88); fill-opacity: 1; white-space: pre;">Permian Basin</text><g class="layers"><g class="legendfill"><path class="js-fill" d="M5,-2h30v6h-30z" style="stroke-width: 0; fill: rgb(124, 58, 237); fill-opacity: 0.75;"/></g><g class="legendlines"><path class="js-line" d="M5,-2h30" style="fill: none; stroke: rgb(124, 58, 237); stroke-opacity: 1; stroke-width: 0px;"/></g><g class="legendsymbols"><g class="legendpoints"/></g></g><rect class="legendtoggle" x="0" y="-9.5" width="107.53125" height="19" style="fill: rgb(0, 0, 0); fill-opacity: 0;"/></g></g></g><rect class="scrollbar" rx="20" ry="3" width="0" height="0" style="fill: rgb(128, 139, 164); fill-opacity: 1;" x="0" y="0"/></g><g class="g-gtitle"/><g class="g-xtitle"/><g class="g-ytitle"/><g class="annotation" data-index="0" style="opacity: 1;"><g class="annotation-text-g" transform="rotate(0,305.5,0.4999999999999858)"><g class="cursor-pointer" transform="translate(60,-14)"><rect class="bg" x="0.5" y="0.5" width="490" height="28" style="stroke-width: 1px; stroke: rgb(0, 0, 0); stroke-opacity: 0; fill: rgb(0, 0, 0); fill-opacity: 0;"/><text class="annotation-text" text-anchor="middle" x="245.296875" y="22" style="font-family: 'IBM Plex Mono', 'IBM Plex Sans', sans-serif; font-size: 22px; fill: rgb(17, 17, 17); fill-opacity: 1; white-space: pre;"><tspan style="font-weight:bold">US Marketable Natural Gas Production by Play</tspan></text></g></g></g><g class="annotation" data-index="1" style="opacity: 1;"><g class="annotation-text-g" transform="rotate(0,77,52.5)"><g class="cursor-pointer" transform="translate(60,43)"><rect class="bg" x="0.5" y="0.5" width="33" height="18" style="stroke-width: 1px; stroke: rgb(0, 0, 0); stroke-opacity: 0; fill: rgb(0, 0, 0); fill-opacity: 0;"/><text class="annotation-text" text-anchor="middle" x="16.8125" y="14" style="font-family: 'IBM Plex Mono', 'IBM Plex Sans', sans-serif; font-size: 13px; fill: rgb(88, 88, 88); fill-opacity: 1; white-space: pre;">Bcf/d</text></g></g></g><g class="annotation" data-index="2" style="opacity: 1;"><g class="annotation-text-g" transform="rotate(0,173.5,506)"><g class="cursor-pointer" transform="translate(60,499)"><rect class="bg" x="0.5" y="0.5" width="226" height="13" style="stroke-width: 1px; stroke: rgb(0, 0, 0); stroke-opacity: 0; fill: rgb(0, 0, 0); fill-opacity: 0;"/><text class="annotation-text" text-anchor="middle" x="113.4765625" y="10" style="font-family: 'IBM Plex Mono', 'IBM Plex Sans', sans-serif; font-size: 9px; fill: rgb(136, 136, 136); fill-opacity: 1; white-space: pre;"><tspan style="font-style:italic">Source: EIA; Natural Gas Intelligence; Wood Mackenzie</tspan></text></g></g></g><g class="annotation" data-index="3" style="opacity: 1;"><g class="annotation-text-g" transform="rotate(0,784.5,507)"><g class="cursor-pointer" transform="translate(719,499)"><rect class="bg" x="0.5" y="0.5" width="130" height="15" style="stroke-width: 1px; stroke: rgb(0, 0, 0); stroke-opacity: 0; fill: rgb(0, 0, 0); fill-opacity: 0;"/><text class="annotation-text" text-anchor="middle" x="65.6171875" y="12" style="font-family: 'IBM Plex Mono', 'IBM Plex Sans', sans-serif; font-size: 10px; fill: rgb(17, 17, 17); fill-opacity: 1; white-space: pre;"><tspan style="font-weight:bold">QUITEMAILINGYOURSELF</tspan></text></g></g></g></g></svg>